#N canvas 163 23 1160 699 10;
#X obj 481 599 dac~;
#N canvas 0 22 450 278 (subpatch) 0;
#X array lala 83559 float 2;
#X coords 0 1 83559 -1 200 140 1 0 0;
#X restore 30 19 graph;
#X obj 915 90 s maxLength;
#X msg 915 69 4410;
#X obj 244 22 hsl 128 15 5 5000 0 0 empty tMeanH empty -2 -8 0 10 -262144
-1 -1 0 1;
#X obj 296 43 hsl 128 15 0 2000 0 0 empty tRangeH empty -2 -8 0 10
-262144 -1 -1 3150 1;
#X text 436 44 time range;
#X obj 241 42 s tMean;
#X obj 293 63 s tRange;
#X obj 243 88 hsl 128 15 0 1 0 0 empty lMeanH empty -2 -8 0 10 -262144
-1 -1 750 1;
#X obj 292 112 hsl 128 15 0 1 0 0 empty lRangeH empty -2 -8 0 10 -262144
-1 -1 12700 1;
#X text 427 112 length range;
#X obj 289 132 s lRange;
#X obj 522 43 hsl 128 15 0 20 0 0 empty spMeanH empty -2 -8 0 10 -262144
-1 -1 0 1;
#X obj 590 67 hsl 128 15 0 20 0 0 empty spRangeH empty -2 -8 0 10 -262144
-1 -1 12400 1;
#X text 726 66 speed range;
#X obj 519 63 s spMean;
#X obj 587 87 s spRange;
#X obj 33 161 hsl 195 15 0 1 0 0 empty stMeanH empty -2 -8 0 10 -262144
-1 -1 1740 1;
#X obj 173 181 hsl 128 15 0 1 0 0 empty stRangeH empty -2 -8 0 10 -262144
-1 -1 1270 1;
#X text 234 203 start range;
#X obj 30 181 s stMean;
#X obj 170 201 s stRange;
#X text 924 8 loading audio recording;
#X obj 993 48 openpanel;
#X obj 993 27 bng 15 250 50 0 empty empty empty 17 7 0 10 -262144 -1
-1;
#X obj 993 90 soundfiler;
#X msg 993 69 read -resize \$1 lala;
#X floatatom 993 111 5 0 0 0 - - -, f 5;
#X obj 993 134 s fileSize;
#X msg 519 20 1;
#X obj 915 48 loadbang;
#X obj 522 109 hsl 128 15 0 1 0 0 empty volMeanH empty -2 -8 0 10 -262144
-1 -1 4100 1;
#X obj 571 133 hsl 128 15 0 1 0 0 empty volRangeH empty -2 -8 0 10
-262144 -1 -1 11900 1;
#X obj 240 108 s lMean;
#X text 706 133 volume range;
#X obj 730 155 hsl 128 15 0 1 0 0 empty panningH empty -2 -8 0 10 -262144
-1 -1 12700 1;
#X text 863 155 panning;
#X obj 727 174 s panning;
#X obj 519 128 s volMean;
#X obj 568 153 s volRange;
#X obj 950 202 bng 15 250 50 0 empty empty empty 17 7 0 10 -262144
-1 -1;
#X msg 899 225 0.5;
#X msg 899 247 0.1;
#X msg 899 267 1;
#X msg 899 289 0;
#X msg 899 203 1000;
#X obj 952 227 s stMeanH;
#X obj 952 247 s tMeanH;
#X obj 952 287 s spMeanH;
#X obj 952 307 s volMeanH;
#X obj 952 327 s panningH;
#X obj 1031 227 s stRangeH;
#X obj 1031 247 s tRangeH;
#X obj 1031 287 s spRangeH;
#X obj 1031 307 s volRangeH;
#X obj 952 267 s lMeanH;
#X obj 1031 267 s lRangeH;
#N canvas 15 23 1182 688 packed8grains 0;
#X obj 59 35 r tMean;
#X obj 66 55 r tRange;
#X obj 81 98 r lRange;
#X obj 88 118 r spMean;
#X obj 96 137 r spRange;
#X obj 105 156 r stMean;
#X obj 74 77 r lMean;
#X obj 110 175 r stRange;
#X obj 118 193 r volMean;
#X obj 125 212 r volRange;
#X obj 133 231 r panning;
#X obj 739 636 outlet~;
#X obj 395 636 outlet~;
#X obj 229 35 r tMean;
#X obj 236 55 r tRange;
#X obj 251 98 r lRange;
#X obj 258 118 r spMean;
#X obj 266 137 r spRange;
#X obj 275 156 r stMean;
#X obj 244 77 r lMean;
#X obj 280 175 r stRange;
#X obj 288 193 r volMean;
#X obj 295 212 r volRange;
#X obj 303 231 r panning;
#X obj 398 36 r tMean;
#X obj 405 56 r tRange;
#X obj 420 99 r lRange;
#X obj 427 119 r spMean;
#X obj 435 138 r spRange;
#X obj 444 157 r stMean;
#X obj 413 78 r lMean;
#X obj 449 176 r stRange;
#X obj 457 194 r volMean;
#X obj 464 213 r volRange;
#X obj 472 232 r panning;
#X obj 568 36 r tMean;
#X obj 575 56 r tRange;
#X obj 590 99 r lRange;
#X obj 597 119 r spMean;
#X obj 605 138 r spRange;
#X obj 614 157 r stMean;
#X obj 583 78 r lMean;
#X obj 619 176 r stRange;
#X obj 627 194 r volMean;
#X obj 634 213 r volRange;
#X obj 642 232 r panning;
#X obj 475 313 r tMean;
#X obj 482 333 r tRange;
#X obj 497 376 r lRange;
#X obj 504 396 r spMean;
#X obj 512 415 r spRange;
#X obj 521 434 r stMean;
#X obj 490 355 r lMean;
#X obj 526 453 r stRange;
#X obj 534 471 r volMean;
#X obj 541 490 r volRange;
#X obj 549 509 r panning;
#X obj 645 313 r tMean;
#X obj 652 333 r tRange;
#X obj 667 376 r lRange;
#X obj 674 396 r spMean;
#X obj 682 415 r spRange;
#X obj 691 434 r stMean;
#X obj 660 355 r lMean;
#X obj 696 453 r stRange;
#X obj 704 471 r volMean;
#X obj 711 490 r volRange;
#X obj 719 509 r panning;
#X obj 814 314 r tMean;
#X obj 821 334 r tRange;
#X obj 836 377 r lRange;
#X obj 843 397 r spMean;
#X obj 851 416 r spRange;
#X obj 860 435 r stMean;
#X obj 829 356 r lMean;
#X obj 865 454 r stRange;
#X obj 873 472 r volMean;
#X obj 880 491 r volRange;
#X obj 888 510 r panning;
#X obj 984 314 r tMean;
#X obj 991 334 r tRange;
#X obj 1006 377 r lRange;
#X obj 1013 397 r spMean;
#X obj 1021 416 r spRange;
#X obj 1030 435 r stMean;
#X obj 999 356 r lMean;
#X obj 1035 454 r stRange;
#X obj 1043 472 r volMean;
#X obj 1050 491 r volRange;
#X obj 1058 510 r panning;
#X obj 42 259 aGrain, f 26;
#X obj 212 259 aGrain, f 26;
#X obj 381 260 aGrain, f 26;
#X obj 551 260 aGrain, f 26;
#X obj 458 537 aGrain, f 26;
#X obj 628 537 aGrain, f 26;
#X obj 797 538 aGrain, f 26;
#X obj 967 538 aGrain, f 26;
#N canvas 0 22 1020 608 selector8toggles 0;
#X msg 200 147 1;
#X msg 161 147 0;
#X msg 240 192 1;
#X msg 201 192 0;
#X obj 161 340 tgl 15 0 empty empty empty 17 7 0 10 -262144 -1 -1 0
1;
#X obj 184 340 tgl 15 0 empty empty empty 17 7 0 10 -262144 -1 -1 0
1;
#X obj 206 340 tgl 15 0 empty empty empty 17 7 0 10 -262144 -1 -1 0
1;
#X obj 229 340 tgl 15 0 empty empty empty 17 7 0 10 -262144 -1 -1 0
1;
#X msg 280 238 1;
#X msg 241 238 0;
#X msg 321 286 1;
#X msg 282 286 0;
#X obj 161 125 moses 1;
#X obj 201 170 moses 2;
#X obj 241 216 moses 3;
#X obj 282 264 moses 4;
#X msg 290 149 1;
#X msg 251 149 0;
#X msg 330 194 1;
#X msg 291 194 0;
#X msg 370 240 1;
#X msg 331 240 0;
#X msg 411 288 1;
#X msg 372 288 0;
#X obj 251 127 moses 5;
#X obj 291 172 moses 6;
#X obj 331 218 moses 7;
#X obj 372 266 moses 8;
#X obj 260 340 tgl 15 0 empty empty empty 17 7 0 10 -262144 -1 -1 0
1;
#X obj 283 340 tgl 15 0 empty empty empty 17 7 0 10 -262144 -1 -1 0
1;
#X obj 305 340 tgl 15 0 empty empty empty 17 7 0 10 -262144 -1 -1 0
1;
#X obj 328 340 tgl 15 0 empty empty empty 17 7 0 10 -262144 -1 -1 0
1;
#X obj 295 95 inlet;
#X obj 184 385 outlet;
#X obj 161 362 outlet;
#X obj 229 383 outlet;
#X obj 206 360 outlet;
#X obj 283 384 outlet;
#X obj 260 361 outlet;
#X obj 328 382 outlet;
#X obj 305 359 outlet;
#X connect 0 0 4 0;
#X connect 1 0 4 0;
#X connect 2 0 5 0;
#X connect 3 0 5 0;
#X connect 4 0 34 0;
#X connect 5 0 33 0;
#X connect 6 0 36 0;
#X connect 7 0 35 0;
#X connect 8 0 6 0;
#X connect 9 0 6 0;
#X connect 10 0 7 0;
#X connect 11 0 7 0;
#X connect 12 0 1 0;
#X connect 12 1 0 0;
#X connect 13 0 3 0;
#X connect 13 1 2 0;
#X connect 14 0 9 0;
#X connect 14 1 8 0;
#X connect 15 0 11 0;
#X connect 15 1 10 0;
#X connect 16 0 28 0;
#X connect 17 0 28 0;
#X connect 18 0 29 0;
#X connect 19 0 29 0;
#X connect 20 0 30 0;
#X connect 21 0 30 0;
#X connect 22 0 31 0;
#X connect 23 0 31 0;
#X connect 24 0 17 0;
#X connect 24 1 16 0;
#X connect 25 0 19 0;
#X connect 25 1 18 0;
#X connect 26 0 21 0;
#X connect 26 1 20 0;
#X connect 27 0 23 0;
#X connect 27 1 22 0;
#X connect 28 0 38 0;
#X connect 29 0 37 0;
#X connect 30 0 40 0;
#X connect 31 0 39 0;
#X connect 32 0 12 0;
#X connect 32 0 13 0;
#X connect 32 0 14 0;
#X connect 32 0 15 0;
#X connect 32 0 24 0;
#X connect 32 0 25 0;
#X connect 32 0 26 0;
#X connect 32 0 27 0;
#X restore 876 79 pd selector8toggles;
#X obj 876 55 inlet;
#X obj 50 13 tgl 15 0 empty empty empty 17 7 0 10 -262144 -1 -1 0 1
;
#X obj 224 14 tgl 15 0 empty empty empty 17 7 0 10 -262144 -1 -1 0
1;
#X obj 392 15 tgl 15 0 empty empty empty 17 7 0 10 -262144 -1 -1 0
1;
#X obj 562 18 tgl 15 0 empty empty empty 17 7 0 10 -262144 -1 -1 0
1;
#X obj 467 295 tgl 15 0 empty empty empty 17 7 0 10 -262144 -1 -1 0
1;
#X obj 637 296 tgl 15 0 empty empty empty 17 7 0 10 -262144 -1 -1 0
1;
#X obj 806 292 tgl 15 0 empty empty empty 17 7 0 10 -262144 -1 -1 0
1;
#X obj 979 292 tgl 15 0 empty empty empty 17 7 0 10 -262144 -1 -1 0
1;
#X connect 0 0 90 1;
#X connect 1 0 90 2;
#X connect 2 0 90 4;
#X connect 3 0 90 5;
#X connect 4 0 90 6;
#X connect 5 0 90 7;
#X connect 6 0 90 3;
#X connect 7 0 90 8;
#X connect 8 0 90 9;
#X connect 9 0 90 10;
#X connect 10 0 90 11;
#X connect 13 0 91 1;
#X connect 14 0 91 2;
#X connect 15 0 91 4;
#X connect 16 0 91 5;
#X connect 17 0 91 6;
#X connect 18 0 91 7;
#X connect 19 0 91 3;
#X connect 20 0 91 8;
#X connect 21 0 91 9;
#X connect 22 0 91 10;
#X connect 23 0 91 11;
#X connect 24 0 92 1;
#X connect 25 0 92 2;
#X connect 26 0 92 4;
#X connect 27 0 92 5;
#X connect 28 0 92 6;
#X connect 29 0 92 7;
#X connect 30 0 92 3;
#X connect 31 0 92 8;
#X connect 32 0 92 9;
#X connect 33 0 92 10;
#X connect 34 0 92 11;
#X connect 35 0 93 1;
#X connect 36 0 93 2;
#X connect 37 0 93 4;
#X connect 38 0 93 5;
#X connect 39 0 93 6;
#X connect 40 0 93 7;
#X connect 41 0 93 3;
#X connect 42 0 93 8;
#X connect 43 0 93 9;
#X connect 44 0 93 10;
#X connect 45 0 93 11;
#X connect 46 0 94 1;
#X connect 47 0 94 2;
#X connect 48 0 94 4;
#X connect 49 0 94 5;
#X connect 50 0 94 6;
#X connect 51 0 94 7;
#X connect 52 0 94 3;
#X connect 53 0 94 8;
#X connect 54 0 94 9;
#X connect 55 0 94 10;
#X connect 56 0 94 11;
#X connect 57 0 95 1;
#X connect 58 0 95 2;
#X connect 59 0 95 4;
#X connect 60 0 95 5;
#X connect 61 0 95 6;
#X connect 62 0 95 7;
#X connect 63 0 95 3;
#X connect 64 0 95 8;
#X connect 65 0 95 9;
#X connect 66 0 95 10;
#X connect 67 0 95 11;
#X connect 68 0 96 1;
#X connect 69 0 96 2;
#X connect 70 0 96 4;
#X connect 71 0 96 5;
#X connect 72 0 96 6;
#X connect 73 0 96 7;
#X connect 74 0 96 3;
#X connect 75 0 96 8;
#X connect 76 0 96 9;
#X connect 77 0 96 10;
#X connect 78 0 96 11;
#X connect 79 0 97 1;
#X connect 80 0 97 2;
#X connect 81 0 97 4;
#X connect 82 0 97 5;
#X connect 83 0 97 6;
#X connect 84 0 97 7;
#X connect 85 0 97 3;
#X connect 86 0 97 8;
#X connect 87 0 97 9;
#X connect 88 0 97 10;
#X connect 89 0 97 11;
#X connect 90 0 12 0;
#X connect 90 1 11 0;
#X connect 91 0 12 0;
#X connect 91 1 11 0;
#X connect 92 0 12 0;
#X connect 92 1 11 0;
#X connect 93 0 12 0;
#X connect 93 1 11 0;
#X connect 94 0 12 0;
#X connect 94 1 11 0;
#X connect 95 0 12 0;
#X connect 95 1 11 0;
#X connect 96 0 12 0;
#X connect 96 1 11 0;
#X connect 97 0 12 0;
#X connect 97 1 11 0;
#X connect 98 0 100 0;
#X connect 98 1 101 0;
#X connect 98 2 102 0;
#X connect 98 3 103 0;
#X connect 98 4 104 0;
#X connect 98 5 105 0;
#X connect 98 6 106 0;
#X connect 98 7 107 0;
#X connect 99 0 98 0;
#X connect 100 0 90 0;
#X connect 101 0 91 0;
#X connect 102 0 92 0;
#X connect 103 0 93 0;
#X connect 104 0 94 0;
#X connect 105 0 95 0;
#X connect 106 0 96 0;
#X connect 107 0 97 0;
#X restore 31 355 pd packed8grains;
#X floatatom 810 67 5 0 0 0 - - -, f 5;
#X obj 810 86 s grainsNum;
#X obj 813 25 hsl 128 15 0 64 0 0 empty empty empty -2 -8 0 10 -262144
-1 -1 0 1;
#X obj 810 46 int;
#X obj 31 329 r grainsNum;
#X text 378 21 time min;
#X text 376 88 length min;
#X text 89 181 start min;
#X text 659 40 speed min;
#X text 655 109 volume min;
#X obj 144 330 - 8;
#N canvas 15 23 1182 688 packed8grains 0;
#X obj 59 35 r tMean;
#X obj 66 55 r tRange;
#X obj 81 98 r lRange;
#X obj 88 118 r spMean;
#X obj 96 137 r spRange;
#X obj 105 156 r stMean;
#X obj 74 77 r lMean;
#X obj 110 175 r stRange;
#X obj 118 193 r volMean;
#X obj 125 212 r volRange;
#X obj 133 231 r panning;
#X obj 739 636 outlet~;
#X obj 395 636 outlet~;
#X obj 229 35 r tMean;
#X obj 236 55 r tRange;
#X obj 251 98 r lRange;
#X obj 258 118 r spMean;
#X obj 266 137 r spRange;
#X obj 275 156 r stMean;
#X obj 244 77 r lMean;
#X obj 280 175 r stRange;
#X obj 288 193 r volMean;
#X obj 295 212 r volRange;
#X obj 303 231 r panning;
#X obj 398 36 r tMean;
#X obj 405 56 r tRange;
#X obj 420 99 r lRange;
#X obj 427 119 r spMean;
#X obj 435 138 r spRange;
#X obj 444 157 r stMean;
#X obj 413 78 r lMean;
#X obj 449 176 r stRange;
#X obj 457 194 r volMean;
#X obj 464 213 r volRange;
#X obj 472 232 r panning;
#X obj 568 36 r tMean;
#X obj 575 56 r tRange;
#X obj 590 99 r lRange;
#X obj 597 119 r spMean;
#X obj 605 138 r spRange;
#X obj 614 157 r stMean;
#X obj 583 78 r lMean;
#X obj 619 176 r stRange;
#X obj 627 194 r volMean;
#X obj 634 213 r volRange;
#X obj 642 232 r panning;
#X obj 475 313 r tMean;
#X obj 482 333 r tRange;
#X obj 497 376 r lRange;
#X obj 504 396 r spMean;
#X obj 512 415 r spRange;
#X obj 521 434 r stMean;
#X obj 490 355 r lMean;
#X obj 526 453 r stRange;
#X obj 534 471 r volMean;
#X obj 541 490 r volRange;
#X obj 549 509 r panning;
#X obj 645 313 r tMean;
#X obj 652 333 r tRange;
#X obj 667 376 r lRange;
#X obj 674 396 r spMean;
#X obj 682 415 r spRange;
#X obj 691 434 r stMean;
#X obj 660 355 r lMean;
#X obj 696 453 r stRange;
#X obj 704 471 r volMean;
#X obj 711 490 r volRange;
#X obj 719 509 r panning;
#X obj 814 314 r tMean;
#X obj 821 334 r tRange;
#X obj 836 377 r lRange;
#X obj 843 397 r spMean;
#X obj 851 416 r spRange;
#X obj 860 435 r stMean;
#X obj 829 356 r lMean;
#X obj 865 454 r stRange;
#X obj 873 472 r volMean;
#X obj 880 491 r volRange;
#X obj 888 510 r panning;
#X obj 984 314 r tMean;
#X obj 991 334 r tRange;
#X obj 1006 377 r lRange;
#X obj 1013 397 r spMean;
#X obj 1021 416 r spRange;
#X obj 1030 435 r stMean;
#X obj 999 356 r lMean;
#X obj 1035 454 r stRange;
#X obj 1043 472 r volMean;
#X obj 1050 491 r volRange;
#X obj 1058 510 r panning;
#X obj 42 259 aGrain, f 26;
#X obj 212 259 aGrain, f 26;
#X obj 381 260 aGrain, f 26;
#X obj 551 260 aGrain, f 26;
#X obj 458 537 aGrain, f 26;
#X obj 628 537 aGrain, f 26;
#X obj 797 538 aGrain, f 26;
#X obj 967 538 aGrain, f 26;
#N canvas 0 22 1020 608 selector8toggles 0;
#X msg 200 147 1;
#X msg 161 147 0;
#X msg 240 192 1;
#X msg 201 192 0;
#X obj 161 340 tgl 15 0 empty empty empty 17 7 0 10 -262144 -1 -1 0
1;
#X obj 184 340 tgl 15 0 empty empty empty 17 7 0 10 -262144 -1 -1 0
1;
#X obj 206 340 tgl 15 0 empty empty empty 17 7 0 10 -262144 -1 -1 0
1;
#X obj 229 340 tgl 15 0 empty empty empty 17 7 0 10 -262144 -1 -1 0
1;
#X msg 280 238 1;
#X msg 241 238 0;
#X msg 321 286 1;
#X msg 282 286 0;
#X obj 161 125 moses 1;
#X obj 201 170 moses 2;
#X obj 241 216 moses 3;
#X obj 282 264 moses 4;
#X msg 290 149 1;
#X msg 251 149 0;
#X msg 330 194 1;
#X msg 291 194 0;
#X msg 370 240 1;
#X msg 331 240 0;
#X msg 411 288 1;
#X msg 372 288 0;
#X obj 251 127 moses 5;
#X obj 291 172 moses 6;
#X obj 331 218 moses 7;
#X obj 372 266 moses 8;
#X obj 260 340 tgl 15 0 empty empty empty 17 7 0 10 -262144 -1 -1 0
1;
#X obj 283 340 tgl 15 0 empty empty empty 17 7 0 10 -262144 -1 -1 0
1;
#X obj 305 340 tgl 15 0 empty empty empty 17 7 0 10 -262144 -1 -1 0
1;
#X obj 328 340 tgl 15 0 empty empty empty 17 7 0 10 -262144 -1 -1 0
1;
#X obj 295 95 inlet;
#X obj 184 385 outlet;
#X obj 161 362 outlet;
#X obj 229 383 outlet;
#X obj 206 360 outlet;
#X obj 283 384 outlet;
#X obj 260 361 outlet;
#X obj 328 382 outlet;
#X obj 305 359 outlet;
#X connect 0 0 4 0;
#X connect 1 0 4 0;
#X connect 2 0 5 0;
#X connect 3 0 5 0;
#X connect 4 0 34 0;
#X connect 5 0 33 0;
#X connect 6 0 36 0;
#X connect 7 0 35 0;
#X connect 8 0 6 0;
#X connect 9 0 6 0;
#X connect 10 0 7 0;
#X connect 11 0 7 0;
#X connect 12 0 1 0;
#X connect 12 1 0 0;
#X connect 13 0 3 0;
#X connect 13 1 2 0;
#X connect 14 0 9 0;
#X connect 14 1 8 0;
#X connect 15 0 11 0;
#X connect 15 1 10 0;
#X connect 16 0 28 0;
#X connect 17 0 28 0;
#X connect 18 0 29 0;
#X connect 19 0 29 0;
#X connect 20 0 30 0;
#X connect 21 0 30 0;
#X connect 22 0 31 0;
#X connect 23 0 31 0;
#X connect 24 0 17 0;
#X connect 24 1 16 0;
#X connect 25 0 19 0;
#X connect 25 1 18 0;
#X connect 26 0 21 0;
#X connect 26 1 20 0;
#X connect 27 0 23 0;
#X connect 27 1 22 0;
#X connect 28 0 38 0;
#X connect 29 0 37 0;
#X connect 30 0 40 0;
#X connect 31 0 39 0;
#X connect 32 0 12 0;
#X connect 32 0 13 0;
#X connect 32 0 14 0;
#X connect 32 0 15 0;
#X connect 32 0 24 0;
#X connect 32 0 25 0;
#X connect 32 0 26 0;
#X connect 32 0 27 0;
#X restore 876 79 pd selector8toggles;
#X obj 876 55 inlet;
#X obj 50 13 tgl 15 0 empty empty empty 17 7 0 10 -262144 -1 -1 0 1
;
#X obj 224 14 tgl 15 0 empty empty empty 17 7 0 10 -262144 -1 -1 0
1;
#X obj 392 15 tgl 15 0 empty empty empty 17 7 0 10 -262144 -1 -1 0
1;
#X obj 562 18 tgl 15 0 empty empty empty 17 7 0 10 -262144 -1 -1 0
1;
#X obj 467 295 tgl 15 0 empty empty empty 17 7 0 10 -262144 -1 -1 0
1;
#X obj 637 296 tgl 15 0 empty empty empty 17 7 0 10 -262144 -1 -1 0
1;
#X obj 806 292 tgl 15 0 empty empty empty 17 7 0 10 -262144 -1 -1 0
1;
#X obj 979 292 tgl 15 0 empty empty empty 17 7 0 10 -262144 -1 -1 0
1;
#X connect 0 0 90 1;
#X connect 1 0 90 2;
#X connect 2 0 90 4;
#X connect 3 0 90 5;
#X connect 4 0 90 6;
#X connect 5 0 90 7;
#X connect 6 0 90 3;
#X connect 7 0 90 8;
#X connect 8 0 90 9;
#X connect 9 0 90 10;
#X connect 10 0 90 11;
#X connect 13 0 91 1;
#X connect 14 0 91 2;
#X connect 15 0 91 4;
#X connect 16 0 91 5;
#X connect 17 0 91 6;
#X connect 18 0 91 7;
#X connect 19 0 91 3;
#X connect 20 0 91 8;
#X connect 21 0 91 9;
#X connect 22 0 91 10;
#X connect 23 0 91 11;
#X connect 24 0 92 1;
#X connect 25 0 92 2;
#X connect 26 0 92 4;
#X connect 27 0 92 5;
#X connect 28 0 92 6;
#X connect 29 0 92 7;
#X connect 30 0 92 3;
#X connect 31 0 92 8;
#X connect 32 0 92 9;
#X connect 33 0 92 10;
#X connect 34 0 92 11;
#X connect 35 0 93 1;
#X connect 36 0 93 2;
#X connect 37 0 93 4;
#X connect 38 0 93 5;
#X connect 39 0 93 6;
#X connect 40 0 93 7;
#X connect 41 0 93 3;
#X connect 42 0 93 8;
#X connect 43 0 93 9;
#X connect 44 0 93 10;
#X connect 45 0 93 11;
#X connect 46 0 94 1;
#X connect 47 0 94 2;
#X connect 48 0 94 4;
#X connect 49 0 94 5;
#X connect 50 0 94 6;
#X connect 51 0 94 7;
#X connect 52 0 94 3;
#X connect 53 0 94 8;
#X connect 54 0 94 9;
#X connect 55 0 94 10;
#X connect 56 0 94 11;
#X connect 57 0 95 1;
#X connect 58 0 95 2;
#X connect 59 0 95 4;
#X connect 60 0 95 5;
#X connect 61 0 95 6;
#X connect 62 0 95 7;
#X connect 63 0 95 3;
#X connect 64 0 95 8;
#X connect 65 0 95 9;
#X connect 66 0 95 10;
#X connect 67 0 95 11;
#X connect 68 0 96 1;
#X connect 69 0 96 2;
#X connect 70 0 96 4;
#X connect 71 0 96 5;
#X connect 72 0 96 6;
#X connect 73 0 96 7;
#X connect 74 0 96 3;
#X connect 75 0 96 8;
#X connect 76 0 96 9;
#X connect 77 0 96 10;
#X connect 78 0 96 11;
#X connect 79 0 97 1;
#X connect 80 0 97 2;
#X connect 81 0 97 4;
#X connect 82 0 97 5;
#X connect 83 0 97 6;
#X connect 84 0 97 7;
#X connect 85 0 97 3;
#X connect 86 0 97 8;
#X connect 87 0 97 9;
#X connect 88 0 97 10;
#X connect 89 0 97 11;
#X connect 90 0 12 0;
#X connect 90 1 11 0;
#X connect 91 0 12 0;
#X connect 91 1 11 0;
#X connect 92 0 12 0;
#X connect 92 1 11 0;
#X connect 93 0 12 0;
#X connect 93 1 11 0;
#X connect 94 0 12 0;
#X connect 94 1 11 0;
#X connect 95 0 12 0;
#X connect 95 1 11 0;
#X connect 96 0 12 0;
#X connect 96 1 11 0;
#X connect 97 0 12 0;
#X connect 97 1 11 0;
#X connect 98 0 100 0;
#X connect 98 1 101 0;
#X connect 98 2 102 0;
#X connect 98 3 103 0;
#X connect 98 4 104 0;
#X connect 98 5 105 0;
#X connect 98 6 106 0;
#X connect 98 7 107 0;
#X connect 99 0 98 0;
#X connect 100 0 90 0;
#X connect 101 0 91 0;
#X connect 102 0 92 0;
#X connect 103 0 93 0;
#X connect 104 0 94 0;
#X connect 105 0 95 0;
#X connect 106 0 96 0;
#X connect 107 0 97 0;
#X restore 144 353 pd packed8grains;
#X obj 144 307 r grainsNum;
#N canvas 15 23 1182 688 packed8grains 0;
#X obj 59 35 r tMean;
#X obj 66 55 r tRange;
#X obj 81 98 r lRange;
#X obj 88 118 r spMean;
#X obj 96 137 r spRange;
#X obj 105 156 r stMean;
#X obj 74 77 r lMean;
#X obj 110 175 r stRange;
#X obj 118 193 r volMean;
#X obj 125 212 r volRange;
#X obj 133 231 r panning;
#X obj 739 636 outlet~;
#X obj 395 636 outlet~;
#X obj 229 35 r tMean;
#X obj 236 55 r tRange;
#X obj 251 98 r lRange;
#X obj 258 118 r spMean;
#X obj 266 137 r spRange;
#X obj 275 156 r stMean;
#X obj 244 77 r lMean;
#X obj 280 175 r stRange;
#X obj 288 193 r volMean;
#X obj 295 212 r volRange;
#X obj 303 231 r panning;
#X obj 398 36 r tMean;
#X obj 405 56 r tRange;
#X obj 420 99 r lRange;
#X obj 427 119 r spMean;
#X obj 435 138 r spRange;
#X obj 444 157 r stMean;
#X obj 413 78 r lMean;
#X obj 449 176 r stRange;
#X obj 457 194 r volMean;
#X obj 464 213 r volRange;
#X obj 472 232 r panning;
#X obj 568 36 r tMean;
#X obj 575 56 r tRange;
#X obj 590 99 r lRange;
#X obj 597 119 r spMean;
#X obj 605 138 r spRange;
#X obj 614 157 r stMean;
#X obj 583 78 r lMean;
#X obj 619 176 r stRange;
#X obj 627 194 r volMean;
#X obj 634 213 r volRange;
#X obj 642 232 r panning;
#X obj 475 313 r tMean;
#X obj 482 333 r tRange;
#X obj 497 376 r lRange;
#X obj 504 396 r spMean;
#X obj 512 415 r spRange;
#X obj 521 434 r stMean;
#X obj 490 355 r lMean;
#X obj 526 453 r stRange;
#X obj 534 471 r volMean;
#X obj 541 490 r volRange;
#X obj 549 509 r panning;
#X obj 645 313 r tMean;
#X obj 652 333 r tRange;
#X obj 667 376 r lRange;
#X obj 674 396 r spMean;
#X obj 682 415 r spRange;
#X obj 691 434 r stMean;
#X obj 660 355 r lMean;
#X obj 696 453 r stRange;
#X obj 704 471 r volMean;
#X obj 711 490 r volRange;
#X obj 719 509 r panning;
#X obj 814 314 r tMean;
#X obj 821 334 r tRange;
#X obj 836 377 r lRange;
#X obj 843 397 r spMean;
#X obj 851 416 r spRange;
#X obj 860 435 r stMean;
#X obj 829 356 r lMean;
#X obj 865 454 r stRange;
#X obj 873 472 r volMean;
#X obj 880 491 r volRange;
#X obj 888 510 r panning;
#X obj 984 314 r tMean;
#X obj 991 334 r tRange;
#X obj 1006 377 r lRange;
#X obj 1013 397 r spMean;
#X obj 1021 416 r spRange;
#X obj 1030 435 r stMean;
#X obj 999 356 r lMean;
#X obj 1035 454 r stRange;
#X obj 1043 472 r volMean;
#X obj 1050 491 r volRange;
#X obj 1058 510 r panning;
#X obj 42 259 aGrain, f 26;
#X obj 212 259 aGrain, f 26;
#X obj 381 260 aGrain, f 26;
#X obj 551 260 aGrain, f 26;
#X obj 458 537 aGrain, f 26;
#X obj 628 537 aGrain, f 26;
#X obj 797 538 aGrain, f 26;
#X obj 967 538 aGrain, f 26;
#N canvas 0 22 1020 608 selector8toggles 0;
#X msg 200 147 1;
#X msg 161 147 0;
#X msg 240 192 1;
#X msg 201 192 0;
#X obj 161 340 tgl 15 0 empty empty empty 17 7 0 10 -262144 -1 -1 0
1;
#X obj 184 340 tgl 15 0 empty empty empty 17 7 0 10 -262144 -1 -1 0
1;
#X obj 206 340 tgl 15 0 empty empty empty 17 7 0 10 -262144 -1 -1 0
1;
#X obj 229 340 tgl 15 0 empty empty empty 17 7 0 10 -262144 -1 -1 0
1;
#X msg 280 238 1;
#X msg 241 238 0;
#X msg 321 286 1;
#X msg 282 286 0;
#X obj 161 125 moses 1;
#X obj 201 170 moses 2;
#X obj 241 216 moses 3;
#X obj 282 264 moses 4;
#X msg 290 149 1;
#X msg 251 149 0;
#X msg 330 194 1;
#X msg 291 194 0;
#X msg 370 240 1;
#X msg 331 240 0;
#X msg 411 288 1;
#X msg 372 288 0;
#X obj 251 127 moses 5;
#X obj 291 172 moses 6;
#X obj 331 218 moses 7;
#X obj 372 266 moses 8;
#X obj 260 340 tgl 15 0 empty empty empty 17 7 0 10 -262144 -1 -1 0
1;
#X obj 283 340 tgl 15 0 empty empty empty 17 7 0 10 -262144 -1 -1 0
1;
#X obj 305 340 tgl 15 0 empty empty empty 17 7 0 10 -262144 -1 -1 0
1;
#X obj 328 340 tgl 15 0 empty empty empty 17 7 0 10 -262144 -1 -1 0
1;
#X obj 295 95 inlet;
#X obj 184 385 outlet;
#X obj 161 362 outlet;
#X obj 229 383 outlet;
#X obj 206 360 outlet;
#X obj 283 384 outlet;
#X obj 260 361 outlet;
#X obj 328 382 outlet;
#X obj 305 359 outlet;
#X connect 0 0 4 0;
#X connect 1 0 4 0;
#X connect 2 0 5 0;
#X connect 3 0 5 0;
#X connect 4 0 34 0;
#X connect 5 0 33 0;
#X connect 6 0 36 0;
#X connect 7 0 35 0;
#X connect 8 0 6 0;
#X connect 9 0 6 0;
#X connect 10 0 7 0;
#X connect 11 0 7 0;
#X connect 12 0 1 0;
#X connect 12 1 0 0;
#X connect 13 0 3 0;
#X connect 13 1 2 0;
#X connect 14 0 9 0;
#X connect 14 1 8 0;
#X connect 15 0 11 0;
#X connect 15 1 10 0;
#X connect 16 0 28 0;
#X connect 17 0 28 0;
#X connect 18 0 29 0;
#X connect 19 0 29 0;
#X connect 20 0 30 0;
#X connect 21 0 30 0;
#X connect 22 0 31 0;
#X connect 23 0 31 0;
#X connect 24 0 17 0;
#X connect 24 1 16 0;
#X connect 25 0 19 0;
#X connect 25 1 18 0;
#X connect 26 0 21 0;
#X connect 26 1 20 0;
#X connect 27 0 23 0;
#X connect 27 1 22 0;
#X connect 28 0 38 0;
#X connect 29 0 37 0;
#X connect 30 0 40 0;
#X connect 31 0 39 0;
#X connect 32 0 12 0;
#X connect 32 0 13 0;
#X connect 32 0 14 0;
#X connect 32 0 15 0;
#X connect 32 0 24 0;
#X connect 32 0 25 0;
#X connect 32 0 26 0;
#X connect 32 0 27 0;
#X restore 876 79 pd selector8toggles;
#X obj 876 55 inlet;
#X obj 50 13 tgl 15 0 empty empty empty 17 7 0 10 -262144 -1 -1 0 1
;
#X obj 224 14 tgl 15 0 empty empty empty 17 7 0 10 -262144 -1 -1 0
1;
#X obj 392 15 tgl 15 0 empty empty empty 17 7 0 10 -262144 -1 -1 0
1;
#X obj 562 18 tgl 15 0 empty empty empty 17 7 0 10 -262144 -1 -1 0
1;
#X obj 467 295 tgl 15 0 empty empty empty 17 7 0 10 -262144 -1 -1 0
1;
#X obj 637 296 tgl 15 0 empty empty empty 17 7 0 10 -262144 -1 -1 0
1;
#X obj 806 292 tgl 15 0 empty empty empty 17 7 0 10 -262144 -1 -1 0
1;
#X obj 979 292 tgl 15 0 empty empty empty 17 7 0 10 -262144 -1 -1 0
1;
#X connect 0 0 90 1;
#X connect 1 0 90 2;
#X connect 2 0 90 4;
#X connect 3 0 90 5;
#X connect 4 0 90 6;
#X connect 5 0 90 7;
#X connect 6 0 90 3;
#X connect 7 0 90 8;
#X connect 8 0 90 9;
#X connect 9 0 90 10;
#X connect 10 0 90 11;
#X connect 13 0 91 1;
#X connect 14 0 91 2;
#X connect 15 0 91 4;
#X connect 16 0 91 5;
#X connect 17 0 91 6;
#X connect 18 0 91 7;
#X connect 19 0 91 3;
#X connect 20 0 91 8;
#X connect 21 0 91 9;
#X connect 22 0 91 10;
#X connect 23 0 91 11;
#X connect 24 0 92 1;
#X connect 25 0 92 2;
#X connect 26 0 92 4;
#X connect 27 0 92 5;
#X connect 28 0 92 6;
#X connect 29 0 92 7;
#X connect 30 0 92 3;
#X connect 31 0 92 8;
#X connect 32 0 92 9;
#X connect 33 0 92 10;
#X connect 34 0 92 11;
#X connect 35 0 93 1;
#X connect 36 0 93 2;
#X connect 37 0 93 4;
#X connect 38 0 93 5;
#X connect 39 0 93 6;
#X connect 40 0 93 7;
#X connect 41 0 93 3;
#X connect 42 0 93 8;
#X connect 43 0 93 9;
#X connect 44 0 93 10;
#X connect 45 0 93 11;
#X connect 46 0 94 1;
#X connect 47 0 94 2;
#X connect 48 0 94 4;
#X connect 49 0 94 5;
#X connect 50 0 94 6;
#X connect 51 0 94 7;
#X connect 52 0 94 3;
#X connect 53 0 94 8;
#X connect 54 0 94 9;
#X connect 55 0 94 10;
#X connect 56 0 94 11;
#X connect 57 0 95 1;
#X connect 58 0 95 2;
#X connect 59 0 95 4;
#X connect 60 0 95 5;
#X connect 61 0 95 6;
#X connect 62 0 95 7;
#X connect 63 0 95 3;
#X connect 64 0 95 8;
#X connect 65 0 95 9;
#X connect 66 0 95 10;
#X connect 67 0 95 11;
#X connect 68 0 96 1;
#X connect 69 0 96 2;
#X connect 70 0 96 4;
#X connect 71 0 96 5;
#X connect 72 0 96 6;
#X connect 73 0 96 7;
#X connect 74 0 96 3;
#X connect 75 0 96 8;
#X connect 76 0 96 9;
#X connect 77 0 96 10;
#X connect 78 0 96 11;
#X connect 79 0 97 1;
#X connect 80 0 97 2;
#X connect 81 0 97 4;
#X connect 82 0 97 5;
#X connect 83 0 97 6;
#X connect 84 0 97 7;
#X connect 85 0 97 3;
#X connect 86 0 97 8;
#X connect 87 0 97 9;
#X connect 88 0 97 10;
#X connect 89 0 97 11;
#X connect 90 0 12 0;
#X connect 90 1 11 0;
#X connect 91 0 12 0;
#X connect 91 1 11 0;
#X connect 92 0 12 0;
#X connect 92 1 11 0;
#X connect 93 0 12 0;
#X connect 93 1 11 0;
#X connect 94 0 12 0;
#X connect 94 1 11 0;
#X connect 95 0 12 0;
#X connect 95 1 11 0;
#X connect 96 0 12 0;
#X connect 96 1 11 0;
#X connect 97 0 12 0;
#X connect 97 1 11 0;
#X connect 98 0 100 0;
#X connect 98 1 101 0;
#X connect 98 2 102 0;
#X connect 98 3 103 0;
#X connect 98 4 104 0;
#X connect 98 5 105 0;
#X connect 98 6 106 0;
#X connect 98 7 107 0;
#X connect 99 0 98 0;
#X connect 100 0 90 0;
#X connect 101 0 91 0;
#X connect 102 0 92 0;
#X connect 103 0 93 0;
#X connect 104 0 94 0;
#X connect 105 0 95 0;
#X connect 106 0 96 0;
#X connect 107 0 97 0;
#X restore 255 352 pd packed8grains;
#X obj 255 306 r grainsNum;
#N canvas 15 23 1182 688 packed8grains 0;
#X obj 59 35 r tMean;
#X obj 66 55 r tRange;
#X obj 81 98 r lRange;
#X obj 88 118 r spMean;
#X obj 96 137 r spRange;
#X obj 105 156 r stMean;
#X obj 74 77 r lMean;
#X obj 110 175 r stRange;
#X obj 118 193 r volMean;
#X obj 125 212 r volRange;
#X obj 133 231 r panning;
#X obj 739 636 outlet~;
#X obj 395 636 outlet~;
#X obj 229 35 r tMean;
#X obj 236 55 r tRange;
#X obj 251 98 r lRange;
#X obj 258 118 r spMean;
#X obj 266 137 r spRange;
#X obj 275 156 r stMean;
#X obj 244 77 r lMean;
#X obj 280 175 r stRange;
#X obj 288 193 r volMean;
#X obj 295 212 r volRange;
#X obj 303 231 r panning;
#X obj 398 36 r tMean;
#X obj 405 56 r tRange;
#X obj 420 99 r lRange;
#X obj 427 119 r spMean;
#X obj 435 138 r spRange;
#X obj 444 157 r stMean;
#X obj 413 78 r lMean;
#X obj 449 176 r stRange;
#X obj 457 194 r volMean;
#X obj 464 213 r volRange;
#X obj 472 232 r panning;
#X obj 568 36 r tMean;
#X obj 575 56 r tRange;
#X obj 590 99 r lRange;
#X obj 597 119 r spMean;
#X obj 605 138 r spRange;
#X obj 614 157 r stMean;
#X obj 583 78 r lMean;
#X obj 619 176 r stRange;
#X obj 627 194 r volMean;
#X obj 634 213 r volRange;
#X obj 642 232 r panning;
#X obj 475 313 r tMean;
#X obj 482 333 r tRange;
#X obj 497 376 r lRange;
#X obj 504 396 r spMean;
#X obj 512 415 r spRange;
#X obj 521 434 r stMean;
#X obj 490 355 r lMean;
#X obj 526 453 r stRange;
#X obj 534 471 r volMean;
#X obj 541 490 r volRange;
#X obj 549 509 r panning;
#X obj 645 313 r tMean;
#X obj 652 333 r tRange;
#X obj 667 376 r lRange;
#X obj 674 396 r spMean;
#X obj 682 415 r spRange;
#X obj 691 434 r stMean;
#X obj 660 355 r lMean;
#X obj 696 453 r stRange;
#X obj 704 471 r volMean;
#X obj 711 490 r volRange;
#X obj 719 509 r panning;
#X obj 814 314 r tMean;
#X obj 821 334 r tRange;
#X obj 836 377 r lRange;
#X obj 843 397 r spMean;
#X obj 851 416 r spRange;
#X obj 860 435 r stMean;
#X obj 829 356 r lMean;
#X obj 865 454 r stRange;
#X obj 873 472 r volMean;
#X obj 880 491 r volRange;
#X obj 888 510 r panning;
#X obj 984 314 r tMean;
#X obj 991 334 r tRange;
#X obj 1006 377 r lRange;
#X obj 1013 397 r spMean;
#X obj 1021 416 r spRange;
#X obj 1030 435 r stMean;
#X obj 999 356 r lMean;
#X obj 1035 454 r stRange;
#X obj 1043 472 r volMean;
#X obj 1050 491 r volRange;
#X obj 1058 510 r panning;
#X obj 42 259 aGrain, f 26;
#X obj 212 259 aGrain, f 26;
#X obj 381 260 aGrain, f 26;
#X obj 551 260 aGrain, f 26;
#X obj 458 537 aGrain, f 26;
#X obj 628 537 aGrain, f 26;
#X obj 797 538 aGrain, f 26;
#X obj 967 538 aGrain, f 26;
#N canvas 0 22 1020 608 selector8toggles 0;
#X msg 200 147 1;
#X msg 161 147 0;
#X msg 240 192 1;
#X msg 201 192 0;
#X obj 161 340 tgl 15 0 empty empty empty 17 7 0 10 -262144 -1 -1 0
1;
#X obj 184 340 tgl 15 0 empty empty empty 17 7 0 10 -262144 -1 -1 0
1;
#X obj 206 340 tgl 15 0 empty empty empty 17 7 0 10 -262144 -1 -1 0
1;
#X obj 229 340 tgl 15 0 empty empty empty 17 7 0 10 -262144 -1 -1 0
1;
#X msg 280 238 1;
#X msg 241 238 0;
#X msg 321 286 1;
#X msg 282 286 0;
#X obj 161 125 moses 1;
#X obj 201 170 moses 2;
#X obj 241 216 moses 3;
#X obj 282 264 moses 4;
#X msg 290 149 1;
#X msg 251 149 0;
#X msg 330 194 1;
#X msg 291 194 0;
#X msg 370 240 1;
#X msg 331 240 0;
#X msg 411 288 1;
#X msg 372 288 0;
#X obj 251 127 moses 5;
#X obj 291 172 moses 6;
#X obj 331 218 moses 7;
#X obj 372 266 moses 8;
#X obj 260 340 tgl 15 0 empty empty empty 17 7 0 10 -262144 -1 -1 0
1;
#X obj 283 340 tgl 15 0 empty empty empty 17 7 0 10 -262144 -1 -1 0
1;
#X obj 305 340 tgl 15 0 empty empty empty 17 7 0 10 -262144 -1 -1 0
1;
#X obj 328 340 tgl 15 0 empty empty empty 17 7 0 10 -262144 -1 -1 0
1;
#X obj 295 95 inlet;
#X obj 184 385 outlet;
#X obj 161 362 outlet;
#X obj 229 383 outlet;
#X obj 206 360 outlet;
#X obj 283 384 outlet;
#X obj 260 361 outlet;
#X obj 328 382 outlet;
#X obj 305 359 outlet;
#X connect 0 0 4 0;
#X connect 1 0 4 0;
#X connect 2 0 5 0;
#X connect 3 0 5 0;
#X connect 4 0 34 0;
#X connect 5 0 33 0;
#X connect 6 0 36 0;
#X connect 7 0 35 0;
#X connect 8 0 6 0;
#X connect 9 0 6 0;
#X connect 10 0 7 0;
#X connect 11 0 7 0;
#X connect 12 0 1 0;
#X connect 12 1 0 0;
#X connect 13 0 3 0;
#X connect 13 1 2 0;
#X connect 14 0 9 0;
#X connect 14 1 8 0;
#X connect 15 0 11 0;
#X connect 15 1 10 0;
#X connect 16 0 28 0;
#X connect 17 0 28 0;
#X connect 18 0 29 0;
#X connect 19 0 29 0;
#X connect 20 0 30 0;
#X connect 21 0 30 0;
#X connect 22 0 31 0;
#X connect 23 0 31 0;
#X connect 24 0 17 0;
#X connect 24 1 16 0;
#X connect 25 0 19 0;
#X connect 25 1 18 0;
#X connect 26 0 21 0;
#X connect 26 1 20 0;
#X connect 27 0 23 0;
#X connect 27 1 22 0;
#X connect 28 0 38 0;
#X connect 29 0 37 0;
#X connect 30 0 40 0;
#X connect 31 0 39 0;
#X connect 32 0 12 0;
#X connect 32 0 13 0;
#X connect 32 0 14 0;
#X connect 32 0 15 0;
#X connect 32 0 24 0;
#X connect 32 0 25 0;
#X connect 32 0 26 0;
#X connect 32 0 27 0;
#X restore 876 79 pd selector8toggles;
#X obj 876 55 inlet;
#X obj 50 13 tgl 15 0 empty empty empty 17 7 0 10 -262144 -1 -1 0 1
;
#X obj 224 14 tgl 15 0 empty empty empty 17 7 0 10 -262144 -1 -1 0
1;
#X obj 392 15 tgl 15 0 empty empty empty 17 7 0 10 -262144 -1 -1 0
1;
#X obj 562 18 tgl 15 0 empty empty empty 17 7 0 10 -262144 -1 -1 0
1;
#X obj 467 295 tgl 15 0 empty empty empty 17 7 0 10 -262144 -1 -1 0
1;
#X obj 637 296 tgl 15 0 empty empty empty 17 7 0 10 -262144 -1 -1 0
1;
#X obj 806 292 tgl 15 0 empty empty empty 17 7 0 10 -262144 -1 -1 0
1;
#X obj 979 292 tgl 15 0 empty empty empty 17 7 0 10 -262144 -1 -1 0
1;
#X connect 0 0 90 1;
#X connect 1 0 90 2;
#X connect 2 0 90 4;
#X connect 3 0 90 5;
#X connect 4 0 90 6;
#X connect 5 0 90 7;
#X connect 6 0 90 3;
#X connect 7 0 90 8;
#X connect 8 0 90 9;
#X connect 9 0 90 10;
#X connect 10 0 90 11;
#X connect 13 0 91 1;
#X connect 14 0 91 2;
#X connect 15 0 91 4;
#X connect 16 0 91 5;
#X connect 17 0 91 6;
#X connect 18 0 91 7;
#X connect 19 0 91 3;
#X connect 20 0 91 8;
#X connect 21 0 91 9;
#X connect 22 0 91 10;
#X connect 23 0 91 11;
#X connect 24 0 92 1;
#X connect 25 0 92 2;
#X connect 26 0 92 4;
#X connect 27 0 92 5;
#X connect 28 0 92 6;
#X connect 29 0 92 7;
#X connect 30 0 92 3;
#X connect 31 0 92 8;
#X connect 32 0 92 9;
#X connect 33 0 92 10;
#X connect 34 0 92 11;
#X connect 35 0 93 1;
#X connect 36 0 93 2;
#X connect 37 0 93 4;
#X connect 38 0 93 5;
#X connect 39 0 93 6;
#X connect 40 0 93 7;
#X connect 41 0 93 3;
#X connect 42 0 93 8;
#X connect 43 0 93 9;
#X connect 44 0 93 10;
#X connect 45 0 93 11;
#X connect 46 0 94 1;
#X connect 47 0 94 2;
#X connect 48 0 94 4;
#X connect 49 0 94 5;
#X connect 50 0 94 6;
#X connect 51 0 94 7;
#X connect 52 0 94 3;
#X connect 53 0 94 8;
#X connect 54 0 94 9;
#X connect 55 0 94 10;
#X connect 56 0 94 11;
#X connect 57 0 95 1;
#X connect 58 0 95 2;
#X connect 59 0 95 4;
#X connect 60 0 95 5;
#X connect 61 0 95 6;
#X connect 62 0 95 7;
#X connect 63 0 95 3;
#X connect 64 0 95 8;
#X connect 65 0 95 9;
#X connect 66 0 95 10;
#X connect 67 0 95 11;
#X connect 68 0 96 1;
#X connect 69 0 96 2;
#X connect 70 0 96 4;
#X connect 71 0 96 5;
#X connect 72 0 96 6;
#X connect 73 0 96 7;
#X connect 74 0 96 3;
#X connect 75 0 96 8;
#X connect 76 0 96 9;
#X connect 77 0 96 10;
#X connect 78 0 96 11;
#X connect 79 0 97 1;
#X connect 80 0 97 2;
#X connect 81 0 97 4;
#X connect 82 0 97 5;
#X connect 83 0 97 6;
#X connect 84 0 97 7;
#X connect 85 0 97 3;
#X connect 86 0 97 8;
#X connect 87 0 97 9;
#X connect 88 0 97 10;
#X connect 89 0 97 11;
#X connect 90 0 12 0;
#X connect 90 1 11 0;
#X connect 91 0 12 0;
#X connect 91 1 11 0;
#X connect 92 0 12 0;
#X connect 92 1 11 0;
#X connect 93 0 12 0;
#X connect 93 1 11 0;
#X connect 94 0 12 0;
#X connect 94 1 11 0;
#X connect 95 0 12 0;
#X connect 95 1 11 0;
#X connect 96 0 12 0;
#X connect 96 1 11 0;
#X connect 97 0 12 0;
#X connect 97 1 11 0;
#X connect 98 0 100 0;
#X connect 98 1 101 0;
#X connect 98 2 102 0;
#X connect 98 3 103 0;
#X connect 98 4 104 0;
#X connect 98 5 105 0;
#X connect 98 6 106 0;
#X connect 98 7 107 0;
#X connect 99 0 98 0;
#X connect 100 0 90 0;
#X connect 101 0 91 0;
#X connect 102 0 92 0;
#X connect 103 0 93 0;
#X connect 104 0 94 0;
#X connect 105 0 95 0;
#X connect 106 0 96 0;
#X connect 107 0 97 0;
#X restore 363 352 pd packed8grains;
#X obj 363 306 r grainsNum;
#N canvas 15 23 1182 688 packed8grains 0;
#X obj 59 35 r tMean;
#X obj 66 55 r tRange;
#X obj 81 98 r lRange;
#X obj 88 118 r spMean;
#X obj 96 137 r spRange;
#X obj 105 156 r stMean;
#X obj 74 77 r lMean;
#X obj 110 175 r stRange;
#X obj 118 193 r volMean;
#X obj 125 212 r volRange;
#X obj 133 231 r panning;
#X obj 739 636 outlet~;
#X obj 395 636 outlet~;
#X obj 229 35 r tMean;
#X obj 236 55 r tRange;
#X obj 251 98 r lRange;
#X obj 258 118 r spMean;
#X obj 266 137 r spRange;
#X obj 275 156 r stMean;
#X obj 244 77 r lMean;
#X obj 280 175 r stRange;
#X obj 288 193 r volMean;
#X obj 295 212 r volRange;
#X obj 303 231 r panning;
#X obj 398 36 r tMean;
#X obj 405 56 r tRange;
#X obj 420 99 r lRange;
#X obj 427 119 r spMean;
#X obj 435 138 r spRange;
#X obj 444 157 r stMean;
#X obj 413 78 r lMean;
#X obj 449 176 r stRange;
#X obj 457 194 r volMean;
#X obj 464 213 r volRange;
#X obj 472 232 r panning;
#X obj 568 36 r tMean;
#X obj 575 56 r tRange;
#X obj 590 99 r lRange;
#X obj 597 119 r spMean;
#X obj 605 138 r spRange;
#X obj 614 157 r stMean;
#X obj 583 78 r lMean;
#X obj 619 176 r stRange;
#X obj 627 194 r volMean;
#X obj 634 213 r volRange;
#X obj 642 232 r panning;
#X obj 475 313 r tMean;
#X obj 482 333 r tRange;
#X obj 497 376 r lRange;
#X obj 504 396 r spMean;
#X obj 512 415 r spRange;
#X obj 521 434 r stMean;
#X obj 490 355 r lMean;
#X obj 526 453 r stRange;
#X obj 534 471 r volMean;
#X obj 541 490 r volRange;
#X obj 549 509 r panning;
#X obj 645 313 r tMean;
#X obj 652 333 r tRange;
#X obj 667 376 r lRange;
#X obj 674 396 r spMean;
#X obj 682 415 r spRange;
#X obj 691 434 r stMean;
#X obj 660 355 r lMean;
#X obj 696 453 r stRange;
#X obj 704 471 r volMean;
#X obj 711 490 r volRange;
#X obj 719 509 r panning;
#X obj 814 314 r tMean;
#X obj 821 334 r tRange;
#X obj 836 377 r lRange;
#X obj 843 397 r spMean;
#X obj 851 416 r spRange;
#X obj 860 435 r stMean;
#X obj 829 356 r lMean;
#X obj 865 454 r stRange;
#X obj 873 472 r volMean;
#X obj 880 491 r volRange;
#X obj 888 510 r panning;
#X obj 984 314 r tMean;
#X obj 991 334 r tRange;
#X obj 1006 377 r lRange;
#X obj 1013 397 r spMean;
#X obj 1021 416 r spRange;
#X obj 1030 435 r stMean;
#X obj 999 356 r lMean;
#X obj 1035 454 r stRange;
#X obj 1043 472 r volMean;
#X obj 1050 491 r volRange;
#X obj 1058 510 r panning;
#X obj 42 259 aGrain, f 26;
#X obj 212 259 aGrain, f 26;
#X obj 381 260 aGrain, f 26;
#X obj 551 260 aGrain, f 26;
#X obj 458 537 aGrain, f 26;
#X obj 628 537 aGrain, f 26;
#X obj 797 538 aGrain, f 26;
#X obj 967 538 aGrain, f 26;
#N canvas 0 22 1020 608 selector8toggles 0;
#X msg 200 147 1;
#X msg 161 147 0;
#X msg 240 192 1;
#X msg 201 192 0;
#X obj 161 340 tgl 15 0 empty empty empty 17 7 0 10 -262144 -1 -1 0
1;
#X obj 184 340 tgl 15 0 empty empty empty 17 7 0 10 -262144 -1 -1 0
1;
#X obj 206 340 tgl 15 0 empty empty empty 17 7 0 10 -262144 -1 -1 0
1;
#X obj 229 340 tgl 15 0 empty empty empty 17 7 0 10 -262144 -1 -1 0
1;
#X msg 280 238 1;
#X msg 241 238 0;
#X msg 321 286 1;
#X msg 282 286 0;
#X obj 161 125 moses 1;
#X obj 201 170 moses 2;
#X obj 241 216 moses 3;
#X obj 282 264 moses 4;
#X msg 290 149 1;
#X msg 251 149 0;
#X msg 330 194 1;
#X msg 291 194 0;
#X msg 370 240 1;
#X msg 331 240 0;
#X msg 411 288 1;
#X msg 372 288 0;
#X obj 251 127 moses 5;
#X obj 291 172 moses 6;
#X obj 331 218 moses 7;
#X obj 372 266 moses 8;
#X obj 260 340 tgl 15 0 empty empty empty 17 7 0 10 -262144 -1 -1 0
1;
#X obj 283 340 tgl 15 0 empty empty empty 17 7 0 10 -262144 -1 -1 0
1;
#X obj 305 340 tgl 15 0 empty empty empty 17 7 0 10 -262144 -1 -1 0
1;
#X obj 328 340 tgl 15 0 empty empty empty 17 7 0 10 -262144 -1 -1 0
1;
#X obj 295 95 inlet;
#X obj 184 385 outlet;
#X obj 161 362 outlet;
#X obj 229 383 outlet;
#X obj 206 360 outlet;
#X obj 283 384 outlet;
#X obj 260 361 outlet;
#X obj 328 382 outlet;
#X obj 305 359 outlet;
#X connect 0 0 4 0;
#X connect 1 0 4 0;
#X connect 2 0 5 0;
#X connect 3 0 5 0;
#X connect 4 0 34 0;
#X connect 5 0 33 0;
#X connect 6 0 36 0;
#X connect 7 0 35 0;
#X connect 8 0 6 0;
#X connect 9 0 6 0;
#X connect 10 0 7 0;
#X connect 11 0 7 0;
#X connect 12 0 1 0;
#X connect 12 1 0 0;
#X connect 13 0 3 0;
#X connect 13 1 2 0;
#X connect 14 0 9 0;
#X connect 14 1 8 0;
#X connect 15 0 11 0;
#X connect 15 1 10 0;
#X connect 16 0 28 0;
#X connect 17 0 28 0;
#X connect 18 0 29 0;
#X connect 19 0 29 0;
#X connect 20 0 30 0;
#X connect 21 0 30 0;
#X connect 22 0 31 0;
#X connect 23 0 31 0;
#X connect 24 0 17 0;
#X connect 24 1 16 0;
#X connect 25 0 19 0;
#X connect 25 1 18 0;
#X connect 26 0 21 0;
#X connect 26 1 20 0;
#X connect 27 0 23 0;
#X connect 27 1 22 0;
#X connect 28 0 38 0;
#X connect 29 0 37 0;
#X connect 30 0 40 0;
#X connect 31 0 39 0;
#X connect 32 0 12 0;
#X connect 32 0 13 0;
#X connect 32 0 14 0;
#X connect 32 0 15 0;
#X connect 32 0 24 0;
#X connect 32 0 25 0;
#X connect 32 0 26 0;
#X connect 32 0 27 0;
#X restore 876 79 pd selector8toggles;
#X obj 876 55 inlet;
#X obj 50 13 tgl 15 0 empty empty empty 17 7 0 10 -262144 -1 -1 0 1
;
#X obj 224 14 tgl 15 0 empty empty empty 17 7 0 10 -262144 -1 -1 0
1;
#X obj 392 15 tgl 15 0 empty empty empty 17 7 0 10 -262144 -1 -1 0
1;
#X obj 562 18 tgl 15 0 empty empty empty 17 7 0 10 -262144 -1 -1 0
1;
#X obj 467 295 tgl 15 0 empty empty empty 17 7 0 10 -262144 -1 -1 0
1;
#X obj 637 296 tgl 15 0 empty empty empty 17 7 0 10 -262144 -1 -1 0
1;
#X obj 806 292 tgl 15 0 empty empty empty 17 7 0 10 -262144 -1 -1 0
1;
#X obj 979 292 tgl 15 0 empty empty empty 17 7 0 10 -262144 -1 -1 0
1;
#X connect 0 0 90 1;
#X connect 1 0 90 2;
#X connect 2 0 90 4;
#X connect 3 0 90 5;
#X connect 4 0 90 6;
#X connect 5 0 90 7;
#X connect 6 0 90 3;
#X connect 7 0 90 8;
#X connect 8 0 90 9;
#X connect 9 0 90 10;
#X connect 10 0 90 11;
#X connect 13 0 91 1;
#X connect 14 0 91 2;
#X connect 15 0 91 4;
#X connect 16 0 91 5;
#X connect 17 0 91 6;
#X connect 18 0 91 7;
#X connect 19 0 91 3;
#X connect 20 0 91 8;
#X connect 21 0 91 9;
#X connect 22 0 91 10;
#X connect 23 0 91 11;
#X connect 24 0 92 1;
#X connect 25 0 92 2;
#X connect 26 0 92 4;
#X connect 27 0 92 5;
#X connect 28 0 92 6;
#X connect 29 0 92 7;
#X connect 30 0 92 3;
#X connect 31 0 92 8;
#X connect 32 0 92 9;
#X connect 33 0 92 10;
#X connect 34 0 92 11;
#X connect 35 0 93 1;
#X connect 36 0 93 2;
#X connect 37 0 93 4;
#X connect 38 0 93 5;
#X connect 39 0 93 6;
#X connect 40 0 93 7;
#X connect 41 0 93 3;
#X connect 42 0 93 8;
#X connect 43 0 93 9;
#X connect 44 0 93 10;
#X connect 45 0 93 11;
#X connect 46 0 94 1;
#X connect 47 0 94 2;
#X connect 48 0 94 4;
#X connect 49 0 94 5;
#X connect 50 0 94 6;
#X connect 51 0 94 7;
#X connect 52 0 94 3;
#X connect 53 0 94 8;
#X connect 54 0 94 9;
#X connect 55 0 94 10;
#X connect 56 0 94 11;
#X connect 57 0 95 1;
#X connect 58 0 95 2;
#X connect 59 0 95 4;
#X connect 60 0 95 5;
#X connect 61 0 95 6;
#X connect 62 0 95 7;
#X connect 63 0 95 3;
#X connect 64 0 95 8;
#X connect 65 0 95 9;
#X connect 66 0 95 10;
#X connect 67 0 95 11;
#X connect 68 0 96 1;
#X connect 69 0 96 2;
#X connect 70 0 96 4;
#X connect 71 0 96 5;
#X connect 72 0 96 6;
#X connect 73 0 96 7;
#X connect 74 0 96 3;
#X connect 75 0 96 8;
#X connect 76 0 96 9;
#X connect 77 0 96 10;
#X connect 78 0 96 11;
#X connect 79 0 97 1;
#X connect 80 0 97 2;
#X connect 81 0 97 4;
#X connect 82 0 97 5;
#X connect 83 0 97 6;
#X connect 84 0 97 7;
#X connect 85 0 97 3;
#X connect 86 0 97 8;
#X connect 87 0 97 9;
#X connect 88 0 97 10;
#X connect 89 0 97 11;
#X connect 90 0 12 0;
#X connect 90 1 11 0;
#X connect 91 0 12 0;
#X connect 91 1 11 0;
#X connect 92 0 12 0;
#X connect 92 1 11 0;
#X connect 93 0 12 0;
#X connect 93 1 11 0;
#X connect 94 0 12 0;
#X connect 94 1 11 0;
#X connect 95 0 12 0;
#X connect 95 1 11 0;
#X connect 96 0 12 0;
#X connect 96 1 11 0;
#X connect 97 0 12 0;
#X connect 97 1 11 0;
#X connect 98 0 100 0;
#X connect 98 1 101 0;
#X connect 98 2 102 0;
#X connect 98 3 103 0;
#X connect 98 4 104 0;
#X connect 98 5 105 0;
#X connect 98 6 106 0;
#X connect 98 7 107 0;
#X connect 99 0 98 0;
#X connect 100 0 90 0;
#X connect 101 0 91 0;
#X connect 102 0 92 0;
#X connect 103 0 93 0;
#X connect 104 0 94 0;
#X connect 105 0 95 0;
#X connect 106 0 96 0;
#X connect 107 0 97 0;
#X restore 474 351 pd packed8grains;
#X obj 474 305 r grainsNum;
#N canvas 15 23 1182 688 packed8grains 0;
#X obj 59 35 r tMean;
#X obj 66 55 r tRange;
#X obj 81 98 r lRange;
#X obj 88 118 r spMean;
#X obj 96 137 r spRange;
#X obj 105 156 r stMean;
#X obj 74 77 r lMean;
#X obj 110 175 r stRange;
#X obj 118 193 r volMean;
#X obj 125 212 r volRange;
#X obj 133 231 r panning;
#X obj 739 636 outlet~;
#X obj 395 636 outlet~;
#X obj 229 35 r tMean;
#X obj 236 55 r tRange;
#X obj 251 98 r lRange;
#X obj 258 118 r spMean;
#X obj 266 137 r spRange;
#X obj 275 156 r stMean;
#X obj 244 77 r lMean;
#X obj 280 175 r stRange;
#X obj 288 193 r volMean;
#X obj 295 212 r volRange;
#X obj 303 231 r panning;
#X obj 398 36 r tMean;
#X obj 405 56 r tRange;
#X obj 420 99 r lRange;
#X obj 427 119 r spMean;
#X obj 435 138 r spRange;
#X obj 444 157 r stMean;
#X obj 413 78 r lMean;
#X obj 449 176 r stRange;
#X obj 457 194 r volMean;
#X obj 464 213 r volRange;
#X obj 472 232 r panning;
#X obj 568 36 r tMean;
#X obj 575 56 r tRange;
#X obj 590 99 r lRange;
#X obj 597 119 r spMean;
#X obj 605 138 r spRange;
#X obj 614 157 r stMean;
#X obj 583 78 r lMean;
#X obj 619 176 r stRange;
#X obj 627 194 r volMean;
#X obj 634 213 r volRange;
#X obj 642 232 r panning;
#X obj 475 313 r tMean;
#X obj 482 333 r tRange;
#X obj 497 376 r lRange;
#X obj 504 396 r spMean;
#X obj 512 415 r spRange;
#X obj 521 434 r stMean;
#X obj 490 355 r lMean;
#X obj 526 453 r stRange;
#X obj 534 471 r volMean;
#X obj 541 490 r volRange;
#X obj 549 509 r panning;
#X obj 645 313 r tMean;
#X obj 652 333 r tRange;
#X obj 667 376 r lRange;
#X obj 674 396 r spMean;
#X obj 682 415 r spRange;
#X obj 691 434 r stMean;
#X obj 660 355 r lMean;
#X obj 696 453 r stRange;
#X obj 704 471 r volMean;
#X obj 711 490 r volRange;
#X obj 719 509 r panning;
#X obj 814 314 r tMean;
#X obj 821 334 r tRange;
#X obj 836 377 r lRange;
#X obj 843 397 r spMean;
#X obj 851 416 r spRange;
#X obj 860 435 r stMean;
#X obj 829 356 r lMean;
#X obj 865 454 r stRange;
#X obj 873 472 r volMean;
#X obj 880 491 r volRange;
#X obj 888 510 r panning;
#X obj 984 314 r tMean;
#X obj 991 334 r tRange;
#X obj 1006 377 r lRange;
#X obj 1013 397 r spMean;
#X obj 1021 416 r spRange;
#X obj 1030 435 r stMean;
#X obj 999 356 r lMean;
#X obj 1035 454 r stRange;
#X obj 1043 472 r volMean;
#X obj 1050 491 r volRange;
#X obj 1058 510 r panning;
#X obj 42 259 aGrain, f 26;
#X obj 212 259 aGrain, f 26;
#X obj 381 260 aGrain, f 26;
#X obj 551 260 aGrain, f 26;
#X obj 458 537 aGrain, f 26;
#X obj 628 537 aGrain, f 26;
#X obj 797 538 aGrain, f 26;
#X obj 967 538 aGrain, f 26;
#N canvas 0 22 1020 608 selector8toggles 0;
#X msg 200 147 1;
#X msg 161 147 0;
#X msg 240 192 1;
#X msg 201 192 0;
#X obj 161 340 tgl 15 0 empty empty empty 17 7 0 10 -262144 -1 -1 0
1;
#X obj 184 340 tgl 15 0 empty empty empty 17 7 0 10 -262144 -1 -1 0
1;
#X obj 206 340 tgl 15 0 empty empty empty 17 7 0 10 -262144 -1 -1 0
1;
#X obj 229 340 tgl 15 0 empty empty empty 17 7 0 10 -262144 -1 -1 0
1;
#X msg 280 238 1;
#X msg 241 238 0;
#X msg 321 286 1;
#X msg 282 286 0;
#X obj 161 125 moses 1;
#X obj 201 170 moses 2;
#X obj 241 216 moses 3;
#X obj 282 264 moses 4;
#X msg 290 149 1;
#X msg 251 149 0;
#X msg 330 194 1;
#X msg 291 194 0;
#X msg 370 240 1;
#X msg 331 240 0;
#X msg 411 288 1;
#X msg 372 288 0;
#X obj 251 127 moses 5;
#X obj 291 172 moses 6;
#X obj 331 218 moses 7;
#X obj 372 266 moses 8;
#X obj 260 340 tgl 15 0 empty empty empty 17 7 0 10 -262144 -1 -1 0
1;
#X obj 283 340 tgl 15 0 empty empty empty 17 7 0 10 -262144 -1 -1 0
1;
#X obj 305 340 tgl 15 0 empty empty empty 17 7 0 10 -262144 -1 -1 0
1;
#X obj 328 340 tgl 15 0 empty empty empty 17 7 0 10 -262144 -1 -1 0
1;
#X obj 295 95 inlet;
#X obj 184 385 outlet;
#X obj 161 362 outlet;
#X obj 229 383 outlet;
#X obj 206 360 outlet;
#X obj 283 384 outlet;
#X obj 260 361 outlet;
#X obj 328 382 outlet;
#X obj 305 359 outlet;
#X connect 0 0 4 0;
#X connect 1 0 4 0;
#X connect 2 0 5 0;
#X connect 3 0 5 0;
#X connect 4 0 34 0;
#X connect 5 0 33 0;
#X connect 6 0 36 0;
#X connect 7 0 35 0;
#X connect 8 0 6 0;
#X connect 9 0 6 0;
#X connect 10 0 7 0;
#X connect 11 0 7 0;
#X connect 12 0 1 0;
#X connect 12 1 0 0;
#X connect 13 0 3 0;
#X connect 13 1 2 0;
#X connect 14 0 9 0;
#X connect 14 1 8 0;
#X connect 15 0 11 0;
#X connect 15 1 10 0;
#X connect 16 0 28 0;
#X connect 17 0 28 0;
#X connect 18 0 29 0;
#X connect 19 0 29 0;
#X connect 20 0 30 0;
#X connect 21 0 30 0;
#X connect 22 0 31 0;
#X connect 23 0 31 0;
#X connect 24 0 17 0;
#X connect 24 1 16 0;
#X connect 25 0 19 0;
#X connect 25 1 18 0;
#X connect 26 0 21 0;
#X connect 26 1 20 0;
#X connect 27 0 23 0;
#X connect 27 1 22 0;
#X connect 28 0 38 0;
#X connect 29 0 37 0;
#X connect 30 0 40 0;
#X connect 31 0 39 0;
#X connect 32 0 12 0;
#X connect 32 0 13 0;
#X connect 32 0 14 0;
#X connect 32 0 15 0;
#X connect 32 0 24 0;
#X connect 32 0 25 0;
#X connect 32 0 26 0;
#X connect 32 0 27 0;
#X restore 876 79 pd selector8toggles;
#X obj 876 55 inlet;
#X obj 50 13 tgl 15 0 empty empty empty 17 7 0 10 -262144 -1 -1 0 1
;
#X obj 224 14 tgl 15 0 empty empty empty 17 7 0 10 -262144 -1 -1 0
1;
#X obj 392 15 tgl 15 0 empty empty empty 17 7 0 10 -262144 -1 -1 0
1;
#X obj 562 18 tgl 15 0 empty empty empty 17 7 0 10 -262144 -1 -1 0
1;
#X obj 467 295 tgl 15 0 empty empty empty 17 7 0 10 -262144 -1 -1 0
1;
#X obj 637 296 tgl 15 0 empty empty empty 17 7 0 10 -262144 -1 -1 0
1;
#X obj 806 292 tgl 15 0 empty empty empty 17 7 0 10 -262144 -1 -1 0
1;
#X obj 979 292 tgl 15 0 empty empty empty 17 7 0 10 -262144 -1 -1 0
1;
#X connect 0 0 90 1;
#X connect 1 0 90 2;
#X connect 2 0 90 4;
#X connect 3 0 90 5;
#X connect 4 0 90 6;
#X connect 5 0 90 7;
#X connect 6 0 90 3;
#X connect 7 0 90 8;
#X connect 8 0 90 9;
#X connect 9 0 90 10;
#X connect 10 0 90 11;
#X connect 13 0 91 1;
#X connect 14 0 91 2;
#X connect 15 0 91 4;
#X connect 16 0 91 5;
#X connect 17 0 91 6;
#X connect 18 0 91 7;
#X connect 19 0 91 3;
#X connect 20 0 91 8;
#X connect 21 0 91 9;
#X connect 22 0 91 10;
#X connect 23 0 91 11;
#X connect 24 0 92 1;
#X connect 25 0 92 2;
#X connect 26 0 92 4;
#X connect 27 0 92 5;
#X connect 28 0 92 6;
#X connect 29 0 92 7;
#X connect 30 0 92 3;
#X connect 31 0 92 8;
#X connect 32 0 92 9;
#X connect 33 0 92 10;
#X connect 34 0 92 11;
#X connect 35 0 93 1;
#X connect 36 0 93 2;
#X connect 37 0 93 4;
#X connect 38 0 93 5;
#X connect 39 0 93 6;
#X connect 40 0 93 7;
#X connect 41 0 93 3;
#X connect 42 0 93 8;
#X connect 43 0 93 9;
#X connect 44 0 93 10;
#X connect 45 0 93 11;
#X connect 46 0 94 1;
#X connect 47 0 94 2;
#X connect 48 0 94 4;
#X connect 49 0 94 5;
#X connect 50 0 94 6;
#X connect 51 0 94 7;
#X connect 52 0 94 3;
#X connect 53 0 94 8;
#X connect 54 0 94 9;
#X connect 55 0 94 10;
#X connect 56 0 94 11;
#X connect 57 0 95 1;
#X connect 58 0 95 2;
#X connect 59 0 95 4;
#X connect 60 0 95 5;
#X connect 61 0 95 6;
#X connect 62 0 95 7;
#X connect 63 0 95 3;
#X connect 64 0 95 8;
#X connect 65 0 95 9;
#X connect 66 0 95 10;
#X connect 67 0 95 11;
#X connect 68 0 96 1;
#X connect 69 0 96 2;
#X connect 70 0 96 4;
#X connect 71 0 96 5;
#X connect 72 0 96 6;
#X connect 73 0 96 7;
#X connect 74 0 96 3;
#X connect 75 0 96 8;
#X connect 76 0 96 9;
#X connect 77 0 96 10;
#X connect 78 0 96 11;
#X connect 79 0 97 1;
#X connect 80 0 97 2;
#X connect 81 0 97 4;
#X connect 82 0 97 5;
#X connect 83 0 97 6;
#X connect 84 0 97 7;
#X connect 85 0 97 3;
#X connect 86 0 97 8;
#X connect 87 0 97 9;
#X connect 88 0 97 10;
#X connect 89 0 97 11;
#X connect 90 0 12 0;
#X connect 90 1 11 0;
#X connect 91 0 12 0;
#X connect 91 1 11 0;
#X connect 92 0 12 0;
#X connect 92 1 11 0;
#X connect 93 0 12 0;
#X connect 93 1 11 0;
#X connect 94 0 12 0;
#X connect 94 1 11 0;
#X connect 95 0 12 0;
#X connect 95 1 11 0;
#X connect 96 0 12 0;
#X connect 96 1 11 0;
#X connect 97 0 12 0;
#X connect 97 1 11 0;
#X connect 98 0 100 0;
#X connect 98 1 101 0;
#X connect 98 2 102 0;
#X connect 98 3 103 0;
#X connect 98 4 104 0;
#X connect 98 5 105 0;
#X connect 98 6 106 0;
#X connect 98 7 107 0;
#X connect 99 0 98 0;
#X connect 100 0 90 0;
#X connect 101 0 91 0;
#X connect 102 0 92 0;
#X connect 103 0 93 0;
#X connect 104 0 94 0;
#X connect 105 0 95 0;
#X connect 106 0 96 0;
#X connect 107 0 97 0;
#X restore 535 430 pd packed8grains;
#X obj 535 384 r grainsNum;
#N canvas 15 23 1182 688 packed8grains 0;
#X obj 59 35 r tMean;
#X obj 66 55 r tRange;
#X obj 81 98 r lRange;
#X obj 88 118 r spMean;
#X obj 96 137 r spRange;
#X obj 105 156 r stMean;
#X obj 74 77 r lMean;
#X obj 110 175 r stRange;
#X obj 118 193 r volMean;
#X obj 125 212 r volRange;
#X obj 133 231 r panning;
#X obj 739 636 outlet~;
#X obj 395 636 outlet~;
#X obj 229 35 r tMean;
#X obj 236 55 r tRange;
#X obj 251 98 r lRange;
#X obj 258 118 r spMean;
#X obj 266 137 r spRange;
#X obj 275 156 r stMean;
#X obj 244 77 r lMean;
#X obj 280 175 r stRange;
#X obj 288 193 r volMean;
#X obj 295 212 r volRange;
#X obj 303 231 r panning;
#X obj 398 36 r tMean;
#X obj 405 56 r tRange;
#X obj 420 99 r lRange;
#X obj 427 119 r spMean;
#X obj 435 138 r spRange;
#X obj 444 157 r stMean;
#X obj 413 78 r lMean;
#X obj 449 176 r stRange;
#X obj 457 194 r volMean;
#X obj 464 213 r volRange;
#X obj 472 232 r panning;
#X obj 568 36 r tMean;
#X obj 575 56 r tRange;
#X obj 590 99 r lRange;
#X obj 597 119 r spMean;
#X obj 605 138 r spRange;
#X obj 614 157 r stMean;
#X obj 583 78 r lMean;
#X obj 619 176 r stRange;
#X obj 627 194 r volMean;
#X obj 634 213 r volRange;
#X obj 642 232 r panning;
#X obj 475 313 r tMean;
#X obj 482 333 r tRange;
#X obj 497 376 r lRange;
#X obj 504 396 r spMean;
#X obj 512 415 r spRange;
#X obj 521 434 r stMean;
#X obj 490 355 r lMean;
#X obj 526 453 r stRange;
#X obj 534 471 r volMean;
#X obj 541 490 r volRange;
#X obj 549 509 r panning;
#X obj 645 313 r tMean;
#X obj 652 333 r tRange;
#X obj 667 376 r lRange;
#X obj 674 396 r spMean;
#X obj 682 415 r spRange;
#X obj 691 434 r stMean;
#X obj 660 355 r lMean;
#X obj 696 453 r stRange;
#X obj 704 471 r volMean;
#X obj 711 490 r volRange;
#X obj 719 509 r panning;
#X obj 814 314 r tMean;
#X obj 821 334 r tRange;
#X obj 836 377 r lRange;
#X obj 843 397 r spMean;
#X obj 851 416 r spRange;
#X obj 860 435 r stMean;
#X obj 829 356 r lMean;
#X obj 865 454 r stRange;
#X obj 873 472 r volMean;
#X obj 880 491 r volRange;
#X obj 888 510 r panning;
#X obj 984 314 r tMean;
#X obj 991 334 r tRange;
#X obj 1006 377 r lRange;
#X obj 1013 397 r spMean;
#X obj 1021 416 r spRange;
#X obj 1030 435 r stMean;
#X obj 999 356 r lMean;
#X obj 1035 454 r stRange;
#X obj 1043 472 r volMean;
#X obj 1050 491 r volRange;
#X obj 1058 510 r panning;
#X obj 42 259 aGrain, f 26;
#X obj 212 259 aGrain, f 26;
#X obj 381 260 aGrain, f 26;
#X obj 551 260 aGrain, f 26;
#X obj 458 537 aGrain, f 26;
#X obj 628 537 aGrain, f 26;
#X obj 797 538 aGrain, f 26;
#X obj 967 538 aGrain, f 26;
#N canvas 0 22 1020 608 selector8toggles 0;
#X msg 200 147 1;
#X msg 161 147 0;
#X msg 240 192 1;
#X msg 201 192 0;
#X obj 161 340 tgl 15 0 empty empty empty 17 7 0 10 -262144 -1 -1 0
1;
#X obj 184 340 tgl 15 0 empty empty empty 17 7 0 10 -262144 -1 -1 0
1;
#X obj 206 340 tgl 15 0 empty empty empty 17 7 0 10 -262144 -1 -1 0
1;
#X obj 229 340 tgl 15 0 empty empty empty 17 7 0 10 -262144 -1 -1 0
1;
#X msg 280 238 1;
#X msg 241 238 0;
#X msg 321 286 1;
#X msg 282 286 0;
#X obj 161 125 moses 1;
#X obj 201 170 moses 2;
#X obj 241 216 moses 3;
#X obj 282 264 moses 4;
#X msg 290 149 1;
#X msg 251 149 0;
#X msg 330 194 1;
#X msg 291 194 0;
#X msg 370 240 1;
#X msg 331 240 0;
#X msg 411 288 1;
#X msg 372 288 0;
#X obj 251 127 moses 5;
#X obj 291 172 moses 6;
#X obj 331 218 moses 7;
#X obj 372 266 moses 8;
#X obj 260 340 tgl 15 0 empty empty empty 17 7 0 10 -262144 -1 -1 0
1;
#X obj 283 340 tgl 15 0 empty empty empty 17 7 0 10 -262144 -1 -1 0
1;
#X obj 305 340 tgl 15 0 empty empty empty 17 7 0 10 -262144 -1 -1 0
1;
#X obj 328 340 tgl 15 0 empty empty empty 17 7 0 10 -262144 -1 -1 0
1;
#X obj 295 95 inlet;
#X obj 184 385 outlet;
#X obj 161 362 outlet;
#X obj 229 383 outlet;
#X obj 206 360 outlet;
#X obj 283 384 outlet;
#X obj 260 361 outlet;
#X obj 328 382 outlet;
#X obj 305 359 outlet;
#X connect 0 0 4 0;
#X connect 1 0 4 0;
#X connect 2 0 5 0;
#X connect 3 0 5 0;
#X connect 4 0 34 0;
#X connect 5 0 33 0;
#X connect 6 0 36 0;
#X connect 7 0 35 0;
#X connect 8 0 6 0;
#X connect 9 0 6 0;
#X connect 10 0 7 0;
#X connect 11 0 7 0;
#X connect 12 0 1 0;
#X connect 12 1 0 0;
#X connect 13 0 3 0;
#X connect 13 1 2 0;
#X connect 14 0 9 0;
#X connect 14 1 8 0;
#X connect 15 0 11 0;
#X connect 15 1 10 0;
#X connect 16 0 28 0;
#X connect 17 0 28 0;
#X connect 18 0 29 0;
#X connect 19 0 29 0;
#X connect 20 0 30 0;
#X connect 21 0 30 0;
#X connect 22 0 31 0;
#X connect 23 0 31 0;
#X connect 24 0 17 0;
#X connect 24 1 16 0;
#X connect 25 0 19 0;
#X connect 25 1 18 0;
#X connect 26 0 21 0;
#X connect 26 1 20 0;
#X connect 27 0 23 0;
#X connect 27 1 22 0;
#X connect 28 0 38 0;
#X connect 29 0 37 0;
#X connect 30 0 40 0;
#X connect 31 0 39 0;
#X connect 32 0 12 0;
#X connect 32 0 13 0;
#X connect 32 0 14 0;
#X connect 32 0 15 0;
#X connect 32 0 24 0;
#X connect 32 0 25 0;
#X connect 32 0 26 0;
#X connect 32 0 27 0;
#X restore 876 79 pd selector8toggles;
#X obj 876 55 inlet;
#X obj 50 13 tgl 15 0 empty empty empty 17 7 0 10 -262144 -1 -1 0 1
;
#X obj 224 14 tgl 15 0 empty empty empty 17 7 0 10 -262144 -1 -1 0
1;
#X obj 392 15 tgl 15 0 empty empty empty 17 7 0 10 -262144 -1 -1 0
1;
#X obj 562 18 tgl 15 0 empty empty empty 17 7 0 10 -262144 -1 -1 0
1;
#X obj 467 295 tgl 15 0 empty empty empty 17 7 0 10 -262144 -1 -1 0
1;
#X obj 637 296 tgl 15 0 empty empty empty 17 7 0 10 -262144 -1 -1 0
1;
#X obj 806 292 tgl 15 0 empty empty empty 17 7 0 10 -262144 -1 -1 0
1;
#X obj 979 292 tgl 15 0 empty empty empty 17 7 0 10 -262144 -1 -1 0
1;
#X connect 0 0 90 1;
#X connect 1 0 90 2;
#X connect 2 0 90 4;
#X connect 3 0 90 5;
#X connect 4 0 90 6;
#X connect 5 0 90 7;
#X connect 6 0 90 3;
#X connect 7 0 90 8;
#X connect 8 0 90 9;
#X connect 9 0 90 10;
#X connect 10 0 90 11;
#X connect 13 0 91 1;
#X connect 14 0 91 2;
#X connect 15 0 91 4;
#X connect 16 0 91 5;
#X connect 17 0 91 6;
#X connect 18 0 91 7;
#X connect 19 0 91 3;
#X connect 20 0 91 8;
#X connect 21 0 91 9;
#X connect 22 0 91 10;
#X connect 23 0 91 11;
#X connect 24 0 92 1;
#X connect 25 0 92 2;
#X connect 26 0 92 4;
#X connect 27 0 92 5;
#X connect 28 0 92 6;
#X connect 29 0 92 7;
#X connect 30 0 92 3;
#X connect 31 0 92 8;
#X connect 32 0 92 9;
#X connect 33 0 92 10;
#X connect 34 0 92 11;
#X connect 35 0 93 1;
#X connect 36 0 93 2;
#X connect 37 0 93 4;
#X connect 38 0 93 5;
#X connect 39 0 93 6;
#X connect 40 0 93 7;
#X connect 41 0 93 3;
#X connect 42 0 93 8;
#X connect 43 0 93 9;
#X connect 44 0 93 10;
#X connect 45 0 93 11;
#X connect 46 0 94 1;
#X connect 47 0 94 2;
#X connect 48 0 94 4;
#X connect 49 0 94 5;
#X connect 50 0 94 6;
#X connect 51 0 94 7;
#X connect 52 0 94 3;
#X connect 53 0 94 8;
#X connect 54 0 94 9;
#X connect 55 0 94 10;
#X connect 56 0 94 11;
#X connect 57 0 95 1;
#X connect 58 0 95 2;
#X connect 59 0 95 4;
#X connect 60 0 95 5;
#X connect 61 0 95 6;
#X connect 62 0 95 7;
#X connect 63 0 95 3;
#X connect 64 0 95 8;
#X connect 65 0 95 9;
#X connect 66 0 95 10;
#X connect 67 0 95 11;
#X connect 68 0 96 1;
#X connect 69 0 96 2;
#X connect 70 0 96 4;
#X connect 71 0 96 5;
#X connect 72 0 96 6;
#X connect 73 0 96 7;
#X connect 74 0 96 3;
#X connect 75 0 96 8;
#X connect 76 0 96 9;
#X connect 77 0 96 10;
#X connect 78 0 96 11;
#X connect 79 0 97 1;
#X connect 80 0 97 2;
#X connect 81 0 97 4;
#X connect 82 0 97 5;
#X connect 83 0 97 6;
#X connect 84 0 97 7;
#X connect 85 0 97 3;
#X connect 86 0 97 8;
#X connect 87 0 97 9;
#X connect 88 0 97 10;
#X connect 89 0 97 11;
#X connect 90 0 12 0;
#X connect 90 1 11 0;
#X connect 91 0 12 0;
#X connect 91 1 11 0;
#X connect 92 0 12 0;
#X connect 92 1 11 0;
#X connect 93 0 12 0;
#X connect 93 1 11 0;
#X connect 94 0 12 0;
#X connect 94 1 11 0;
#X connect 95 0 12 0;
#X connect 95 1 11 0;
#X connect 96 0 12 0;
#X connect 96 1 11 0;
#X connect 97 0 12 0;
#X connect 97 1 11 0;
#X connect 98 0 100 0;
#X connect 98 1 101 0;
#X connect 98 2 102 0;
#X connect 98 3 103 0;
#X connect 98 4 104 0;
#X connect 98 5 105 0;
#X connect 98 6 106 0;
#X connect 98 7 107 0;
#X connect 99 0 98 0;
#X connect 100 0 90 0;
#X connect 101 0 91 0;
#X connect 102 0 92 0;
#X connect 103 0 93 0;
#X connect 104 0 94 0;
#X connect 105 0 95 0;
#X connect 106 0 96 0;
#X connect 107 0 97 0;
#X restore 643 430 pd packed8grains;
#X obj 643 384 r grainsNum;
#N canvas 15 23 1182 688 packed8grains 0;
#X obj 59 35 r tMean;
#X obj 66 55 r tRange;
#X obj 81 98 r lRange;
#X obj 88 118 r spMean;
#X obj 96 137 r spRange;
#X obj 105 156 r stMean;
#X obj 74 77 r lMean;
#X obj 110 175 r stRange;
#X obj 118 193 r volMean;
#X obj 125 212 r volRange;
#X obj 133 231 r panning;
#X obj 739 636 outlet~;
#X obj 395 636 outlet~;
#X obj 229 35 r tMean;
#X obj 236 55 r tRange;
#X obj 251 98 r lRange;
#X obj 258 118 r spMean;
#X obj 266 137 r spRange;
#X obj 275 156 r stMean;
#X obj 244 77 r lMean;
#X obj 280 175 r stRange;
#X obj 288 193 r volMean;
#X obj 295 212 r volRange;
#X obj 303 231 r panning;
#X obj 398 36 r tMean;
#X obj 405 56 r tRange;
#X obj 420 99 r lRange;
#X obj 427 119 r spMean;
#X obj 435 138 r spRange;
#X obj 444 157 r stMean;
#X obj 413 78 r lMean;
#X obj 449 176 r stRange;
#X obj 457 194 r volMean;
#X obj 464 213 r volRange;
#X obj 472 232 r panning;
#X obj 568 36 r tMean;
#X obj 575 56 r tRange;
#X obj 590 99 r lRange;
#X obj 597 119 r spMean;
#X obj 605 138 r spRange;
#X obj 614 157 r stMean;
#X obj 583 78 r lMean;
#X obj 619 176 r stRange;
#X obj 627 194 r volMean;
#X obj 634 213 r volRange;
#X obj 642 232 r panning;
#X obj 475 313 r tMean;
#X obj 482 333 r tRange;
#X obj 497 376 r lRange;
#X obj 504 396 r spMean;
#X obj 512 415 r spRange;
#X obj 521 434 r stMean;
#X obj 490 355 r lMean;
#X obj 526 453 r stRange;
#X obj 534 471 r volMean;
#X obj 541 490 r volRange;
#X obj 549 509 r panning;
#X obj 645 313 r tMean;
#X obj 652 333 r tRange;
#X obj 667 376 r lRange;
#X obj 674 396 r spMean;
#X obj 682 415 r spRange;
#X obj 691 434 r stMean;
#X obj 660 355 r lMean;
#X obj 696 453 r stRange;
#X obj 704 471 r volMean;
#X obj 711 490 r volRange;
#X obj 719 509 r panning;
#X obj 814 314 r tMean;
#X obj 821 334 r tRange;
#X obj 836 377 r lRange;
#X obj 843 397 r spMean;
#X obj 851 416 r spRange;
#X obj 860 435 r stMean;
#X obj 829 356 r lMean;
#X obj 865 454 r stRange;
#X obj 873 472 r volMean;
#X obj 880 491 r volRange;
#X obj 888 510 r panning;
#X obj 984 314 r tMean;
#X obj 991 334 r tRange;
#X obj 1006 377 r lRange;
#X obj 1013 397 r spMean;
#X obj 1021 416 r spRange;
#X obj 1030 435 r stMean;
#X obj 999 356 r lMean;
#X obj 1035 454 r stRange;
#X obj 1043 472 r volMean;
#X obj 1050 491 r volRange;
#X obj 1058 510 r panning;
#X obj 42 259 aGrain, f 26;
#X obj 212 259 aGrain, f 26;
#X obj 381 260 aGrain, f 26;
#X obj 551 260 aGrain, f 26;
#X obj 458 537 aGrain, f 26;
#X obj 628 537 aGrain, f 26;
#X obj 797 538 aGrain, f 26;
#X obj 967 538 aGrain, f 26;
#N canvas 0 22 1020 608 selector8toggles 0;
#X msg 200 147 1;
#X msg 161 147 0;
#X msg 240 192 1;
#X msg 201 192 0;
#X obj 161 340 tgl 15 0 empty empty empty 17 7 0 10 -262144 -1 -1 0
1;
#X obj 184 340 tgl 15 0 empty empty empty 17 7 0 10 -262144 -1 -1 0
1;
#X obj 206 340 tgl 15 0 empty empty empty 17 7 0 10 -262144 -1 -1 0
1;
#X obj 229 340 tgl 15 0 empty empty empty 17 7 0 10 -262144 -1 -1 0
1;
#X msg 280 238 1;
#X msg 241 238 0;
#X msg 321 286 1;
#X msg 282 286 0;
#X obj 161 125 moses 1;
#X obj 201 170 moses 2;
#X obj 241 216 moses 3;
#X obj 282 264 moses 4;
#X msg 290 149 1;
#X msg 251 149 0;
#X msg 330 194 1;
#X msg 291 194 0;
#X msg 370 240 1;
#X msg 331 240 0;
#X msg 411 288 1;
#X msg 372 288 0;
#X obj 251 127 moses 5;
#X obj 291 172 moses 6;
#X obj 331 218 moses 7;
#X obj 372 266 moses 8;
#X obj 260 340 tgl 15 0 empty empty empty 17 7 0 10 -262144 -1 -1 0
1;
#X obj 283 340 tgl 15 0 empty empty empty 17 7 0 10 -262144 -1 -1 0
1;
#X obj 305 340 tgl 15 0 empty empty empty 17 7 0 10 -262144 -1 -1 0
1;
#X obj 328 340 tgl 15 0 empty empty empty 17 7 0 10 -262144 -1 -1 0
1;
#X obj 295 95 inlet;
#X obj 184 385 outlet;
#X obj 161 362 outlet;
#X obj 229 383 outlet;
#X obj 206 360 outlet;
#X obj 283 384 outlet;
#X obj 260 361 outlet;
#X obj 328 382 outlet;
#X obj 305 359 outlet;
#X connect 0 0 4 0;
#X connect 1 0 4 0;
#X connect 2 0 5 0;
#X connect 3 0 5 0;
#X connect 4 0 34 0;
#X connect 5 0 33 0;
#X connect 6 0 36 0;
#X connect 7 0 35 0;
#X connect 8 0 6 0;
#X connect 9 0 6 0;
#X connect 10 0 7 0;
#X connect 11 0 7 0;
#X connect 12 0 1 0;
#X connect 12 1 0 0;
#X connect 13 0 3 0;
#X connect 13 1 2 0;
#X connect 14 0 9 0;
#X connect 14 1 8 0;
#X connect 15 0 11 0;
#X connect 15 1 10 0;
#X connect 16 0 28 0;
#X connect 17 0 28 0;
#X connect 18 0 29 0;
#X connect 19 0 29 0;
#X connect 20 0 30 0;
#X connect 21 0 30 0;
#X connect 22 0 31 0;
#X connect 23 0 31 0;
#X connect 24 0 17 0;
#X connect 24 1 16 0;
#X connect 25 0 19 0;
#X connect 25 1 18 0;
#X connect 26 0 21 0;
#X connect 26 1 20 0;
#X connect 27 0 23 0;
#X connect 27 1 22 0;
#X connect 28 0 38 0;
#X connect 29 0 37 0;
#X connect 30 0 40 0;
#X connect 31 0 39 0;
#X connect 32 0 12 0;
#X connect 32 0 13 0;
#X connect 32 0 14 0;
#X connect 32 0 15 0;
#X connect 32 0 24 0;
#X connect 32 0 25 0;
#X connect 32 0 26 0;
#X connect 32 0 27 0;
#X restore 876 79 pd selector8toggles;
#X obj 876 55 inlet;
#X obj 50 13 tgl 15 0 empty empty empty 17 7 0 10 -262144 -1 -1 0 1
;
#X obj 224 14 tgl 15 0 empty empty empty 17 7 0 10 -262144 -1 -1 0
1;
#X obj 392 15 tgl 15 0 empty empty empty 17 7 0 10 -262144 -1 -1 0
1;
#X obj 562 18 tgl 15 0 empty empty empty 17 7 0 10 -262144 -1 -1 0
1;
#X obj 467 295 tgl 15 0 empty empty empty 17 7 0 10 -262144 -1 -1 0
1;
#X obj 637 296 tgl 15 0 empty empty empty 17 7 0 10 -262144 -1 -1 0
1;
#X obj 806 292 tgl 15 0 empty empty empty 17 7 0 10 -262144 -1 -1 0
1;
#X obj 979 292 tgl 15 0 empty empty empty 17 7 0 10 -262144 -1 -1 0
1;
#X connect 0 0 90 1;
#X connect 1 0 90 2;
#X connect 2 0 90 4;
#X connect 3 0 90 5;
#X connect 4 0 90 6;
#X connect 5 0 90 7;
#X connect 6 0 90 3;
#X connect 7 0 90 8;
#X connect 8 0 90 9;
#X connect 9 0 90 10;
#X connect 10 0 90 11;
#X connect 13 0 91 1;
#X connect 14 0 91 2;
#X connect 15 0 91 4;
#X connect 16 0 91 5;
#X connect 17 0 91 6;
#X connect 18 0 91 7;
#X connect 19 0 91 3;
#X connect 20 0 91 8;
#X connect 21 0 91 9;
#X connect 22 0 91 10;
#X connect 23 0 91 11;
#X connect 24 0 92 1;
#X connect 25 0 92 2;
#X connect 26 0 92 4;
#X connect 27 0 92 5;
#X connect 28 0 92 6;
#X connect 29 0 92 7;
#X connect 30 0 92 3;
#X connect 31 0 92 8;
#X connect 32 0 92 9;
#X connect 33 0 92 10;
#X connect 34 0 92 11;
#X connect 35 0 93 1;
#X connect 36 0 93 2;
#X connect 37 0 93 4;
#X connect 38 0 93 5;
#X connect 39 0 93 6;
#X connect 40 0 93 7;
#X connect 41 0 93 3;
#X connect 42 0 93 8;
#X connect 43 0 93 9;
#X connect 44 0 93 10;
#X connect 45 0 93 11;
#X connect 46 0 94 1;
#X connect 47 0 94 2;
#X connect 48 0 94 4;
#X connect 49 0 94 5;
#X connect 50 0 94 6;
#X connect 51 0 94 7;
#X connect 52 0 94 3;
#X connect 53 0 94 8;
#X connect 54 0 94 9;
#X connect 55 0 94 10;
#X connect 56 0 94 11;
#X connect 57 0 95 1;
#X connect 58 0 95 2;
#X connect 59 0 95 4;
#X connect 60 0 95 5;
#X connect 61 0 95 6;
#X connect 62 0 95 7;
#X connect 63 0 95 3;
#X connect 64 0 95 8;
#X connect 65 0 95 9;
#X connect 66 0 95 10;
#X connect 67 0 95 11;
#X connect 68 0 96 1;
#X connect 69 0 96 2;
#X connect 70 0 96 4;
#X connect 71 0 96 5;
#X connect 72 0 96 6;
#X connect 73 0 96 7;
#X connect 74 0 96 3;
#X connect 75 0 96 8;
#X connect 76 0 96 9;
#X connect 77 0 96 10;
#X connect 78 0 96 11;
#X connect 79 0 97 1;
#X connect 80 0 97 2;
#X connect 81 0 97 4;
#X connect 82 0 97 5;
#X connect 83 0 97 6;
#X connect 84 0 97 7;
#X connect 85 0 97 3;
#X connect 86 0 97 8;
#X connect 87 0 97 9;
#X connect 88 0 97 10;
#X connect 89 0 97 11;
#X connect 90 0 12 0;
#X connect 90 1 11 0;
#X connect 91 0 12 0;
#X connect 91 1 11 0;
#X connect 92 0 12 0;
#X connect 92 1 11 0;
#X connect 93 0 12 0;
#X connect 93 1 11 0;
#X connect 94 0 12 0;
#X connect 94 1 11 0;
#X connect 95 0 12 0;
#X connect 95 1 11 0;
#X connect 96 0 12 0;
#X connect 96 1 11 0;
#X connect 97 0 12 0;
#X connect 97 1 11 0;
#X connect 98 0 100 0;
#X connect 98 1 101 0;
#X connect 98 2 102 0;
#X connect 98 3 103 0;
#X connect 98 4 104 0;
#X connect 98 5 105 0;
#X connect 98 6 106 0;
#X connect 98 7 107 0;
#X connect 99 0 98 0;
#X connect 100 0 90 0;
#X connect 101 0 91 0;
#X connect 102 0 92 0;
#X connect 103 0 93 0;
#X connect 104 0 94 0;
#X connect 105 0 95 0;
#X connect 106 0 96 0;
#X connect 107 0 97 0;
#X restore 754 429 pd packed8grains;
#X obj 754 383 r grainsNum;
#X obj 255 329 - 16;
#X obj 363 329 - 24;
#X obj 474 328 - 32;
#X obj 535 407 - 40;
#X obj 643 407 - 48;
#X obj 754 406 - 56;
#X connect 3 0 2 0;
#X connect 4 0 7 0;
#X connect 5 0 8 0;
#X connect 9 0 34 0;
#X connect 10 0 12 0;
#X connect 13 0 16 0;
#X connect 14 0 17 0;
#X connect 18 0 21 0;
#X connect 19 0 22 0;
#X connect 24 0 27 0;
#X connect 25 0 24 0;
#X connect 26 0 28 0;
#X connect 27 0 26 0;
#X connect 28 0 29 0;
#X connect 30 0 13 0;
#X connect 31 0 3 0;
#X connect 31 0 41 0;
#X connect 32 0 39 0;
#X connect 33 0 40 0;
#X connect 36 0 38 0;
#X connect 41 0 28 0;
#X connect 41 0 46 0;
#X connect 41 0 42 0;
#X connect 41 0 43 0;
#X connect 41 0 44 0;
#X connect 41 0 45 0;
#X connect 42 0 51 0;
#X connect 42 0 56 0;
#X connect 42 0 57 0;
#X connect 43 0 47 0;
#X connect 43 0 52 0;
#X connect 44 0 49 0;
#X connect 44 0 50 0;
#X connect 45 0 54 0;
#X connect 45 0 55 0;
#X connect 46 0 48 0;
#X connect 46 0 53 0;
#X connect 58 0 0 0;
#X connect 58 1 0 1;
#X connect 59 0 60 0;
#X connect 61 0 62 0;
#X connect 62 0 59 0;
#X connect 63 0 58 0;
#X connect 69 0 70 0;
#X connect 70 0 0 0;
#X connect 70 1 0 1;
#X connect 71 0 69 0;
#X connect 72 0 0 0;
#X connect 72 1 0 1;
#X connect 73 0 84 0;
#X connect 74 0 0 0;
#X connect 74 1 0 1;
#X connect 75 0 85 0;
#X connect 76 0 0 0;
#X connect 76 1 0 1;
#X connect 77 0 86 0;
#X connect 78 0 0 0;
#X connect 78 1 0 1;
#X connect 79 0 87 0;
#X connect 80 0 0 0;
#X connect 80 1 0 1;
#X connect 81 0 88 0;
#X connect 82 0 0 0;
#X connect 82 1 0 1;
#X connect 83 0 89 0;
#X connect 84 0 72 0;
#X connect 85 0 74 0;
#X connect 86 0 76 0;
#X connect 87 0 78 0;
#X connect 88 0 80 0;
#X connect 89 0 82 0;
