#N canvas 120 23 1160 740 10;
#X obj 907 76 openpanel;
#X obj 907 55 bng 15 250 50 0 empty empty empty 17 7 0 10 -262144 -1
-1;
#X obj 907 118 soundfiler;
#X floatatom 907 139 5 0 0 0 - - -;
#X obj 907 162 s fileSize;
#X text 903 31 loading audio file;
#N canvas 0 22 450 278 (subpatch) 0;
#X array audio_file 83559 float 2;
#X coords 0 1 83559 -1 200 140 1 0 0;
#X restore 855 195 graph;
#X obj 827 99 s maxLength;
#X msg 827 78 4410;
#X obj 827 56 loadbang;
#X obj 403 494 dac~;
#X obj 412 469 *~;
#X obj 672 280 cos~;
#X obj 672 301 *~ -1;
#X obj 672 322 +~ 1;
#X obj 672 342 /~ 2;
#X obj 671 259 line~;
#X msg 671 212 1;
#X obj 671 235 pack 0 0;
#X msg 714 213 0;
#X obj 321 127 bng 15 250 50 0 empty empty empty 17 7 0 10 -262144
-1 -1;
#X text 322 88 play grain;
#X text 62 45 starting index;
#X text 133 28 read file from position to position;
#X obj 45 62 hsl 128 15 0 1 0 0 empty empty empty -2 -8 0 10 -262144
-1 -1 10033 1;
#X obj 227 65 hsl 128 15 0 1 0 0 empty empty empty -2 -8 0 10 -262144
-1 -1 10630 1;
#X obj 224 235 *;
#X obj 239 214 r maxLength;
#X obj 42 276 *;
#X obj 57 214 r fileSize;
#X obj 57 255 -;
#X obj 72 234 r maxLength;
#X floatatom 42 298 12 0 0 0 - - -;
#X floatatom 224 257 12 0 0 0 - - -;
#X obj 227 408 line~;
#X obj 227 386 pack 0 0;
#X obj 406 216 / 44.1;
#X obj 395 65 hsl 128 15 0.1 20 0 0 empty empty empty -2 -8 0 10 -262144
-1 -1 862 1;
#X msg 392 43 1;
#X obj 406 237 t b f;
#X obj 392 259 *;
#X obj 187 344 +;
#X obj 224 276 t b f;
#X obj 172 365 f;
#X obj 27 319 f;
#X obj 321 146 t b b b;
#X text 513 264 update time;
#X obj 207 408 bng 15 250 50 0 empty empty empty 17 7 0 10 -262144
-1 -1;
#X text 430 41 speed;
#X obj 858 338 hsl 195 15 0 1 0 0 empty empty empty -2 -8 0 10 -262144
-1 -1 15326 1;
#X obj 416 113 swap 1;
#X obj 416 135 /;
#X floatatom 416 157 5 0 0 0 - - -;
#X floatatom 415 92 5 0 0 0 - - -;
#X obj 855 357 s startIDX_1;
#X obj 42 29 r startIDX_1;
#X obj 27 168 bng 15 250 50 0 empty empty empty 17 7 0 10 -262144 -1
-1;
#X obj 172 168 bng 15 250 50 0 empty empty empty 17 7 0 10 -262144
-1 -1;
#X text 649 186 apply volume envelope;
#X text 505 279 in volume envelope;
#X obj 714 169 bng 15 250 50 0 empty empty empty 17 7 0 10 -262144
-1 -1;
#X obj 837 466 metro 100;
#X obj 837 447 tgl 15 0 empty empty empty 17 7 0 10 -262144 -1 -1 0
1;
#X obj 321 106 r playBang;
#X obj 943 435 loadbang;
#X obj 752 466 loadbang;
#X obj 685 544 s speed;
#X obj 392 22 r speed;
#X obj 837 517 s playBang;
#X obj 392 282 t b f;
#X obj 375 309 min;
#X msg 719 501 0.1;
#X msg 754 501 18;
#X msg 910 470 20;
#X msg 945 470 150;
#X obj 664 430 loadbang;
#X obj 597 508 s length;
#X msg 631 465 0.01;
#X msg 666 465 1;
#X obj 224 45 r length;
#X obj 790 305 r start;
#X obj 1041 454 loadbang;
#X msg 1043 489 1;
#X obj 974 532 s start;
#X msg 1008 489 0;
#X text 276 46 length;
#X msg 907 97 read -resize \$1 audio_file;
#X obj 286 435 tabread~ audio_file;
#N canvas 737 142 450 300 minNrange 0;
#X obj 181 117 random 1000;
#X obj 181 138 / 1000;
#X floatatom 181 220 5 0 0 0 - - -;
#X obj 181 93 inlet;
#X text 180 72 bang;
#X obj 181 162 * 1;
#X text 204 163 range;
#X obj 181 188 + 0;
#X obj 281 95 inlet;
#X obj 332 95 inlet;
#X text 330 75 range;
#X obj 181 244 outlet;
#X text 287 75 min;
#X text 207 191 min;
#X connect 0 0 1 0;
#X connect 1 0 5 0;
#X connect 2 0 11 0;
#X connect 3 0 0 0;
#X connect 5 0 7 0;
#X connect 7 0 2 0;
#X connect 8 0 7 1;
#X connect 9 0 5 1;
#X restore 597 487 pd minNrange;
#N canvas 737 142 450 300 minNrange 0;
#X obj 181 117 random 1000;
#X obj 181 138 / 1000;
#X floatatom 181 220 5 0 0 0 - - -;
#X obj 181 93 inlet;
#X text 180 72 bang;
#X obj 181 162 * 1;
#X text 204 163 range;
#X obj 181 188 + 0;
#X obj 281 95 inlet;
#X obj 332 95 inlet;
#X text 330 75 range;
#X obj 181 244 outlet;
#X text 283 74 min;
#X text 207 191 min;
#X connect 0 0 1 0;
#X connect 1 0 5 0;
#X connect 2 0 11 0;
#X connect 3 0 0 0;
#X connect 5 0 7 0;
#X connect 7 0 2 0;
#X connect 8 0 7 1;
#X connect 9 0 5 1;
#X restore 685 523 pd minNrange;
#N canvas 737 142 450 300 minNrange 0;
#X obj 181 117 random 1000;
#X obj 181 138 / 1000;
#X floatatom 181 220 5 0 0 0 - - -;
#X obj 181 93 inlet;
#X text 180 72 bang;
#X obj 181 162 * 1;
#X text 204 163 range;
#X obj 181 188 + 0;
#X obj 281 95 inlet;
#X obj 332 95 inlet;
#X text 330 75 range;
#X obj 181 244 outlet;
#X text 283 74 min;
#X text 207 191 min;
#X connect 0 0 1 0;
#X connect 1 0 5 0;
#X connect 2 0 11 0;
#X connect 3 0 0 0;
#X connect 5 0 7 0;
#X connect 7 0 2 0;
#X connect 8 0 7 1;
#X connect 9 0 5 1;
#X restore 876 492 pd minNrange;
#N canvas 737 142 450 300 minNrange 0;
#X obj 181 117 random 1000;
#X obj 181 138 / 1000;
#X floatatom 181 220 5 0 0 0 - - -;
#X obj 181 93 inlet;
#X text 180 72 bang;
#X obj 181 162 * 1;
#X text 204 163 range;
#X obj 181 188 + 0;
#X obj 281 95 inlet;
#X obj 332 95 inlet;
#X text 330 75 range;
#X obj 181 244 outlet;
#X text 283 74 min;
#X text 207 191 min;
#X connect 0 0 1 0;
#X connect 1 0 5 0;
#X connect 2 0 11 0;
#X connect 3 0 0 0;
#X connect 5 0 7 0;
#X connect 7 0 2 0;
#X connect 8 0 7 1;
#X connect 9 0 5 1;
#X restore 974 511 pd minNrange;
#X obj 643 86 line~;
#X obj 641 36 t b b;
#X msg 674 65 0;
#X obj 714 40 r fileSize;
#X obj 616 36 bng 15 250 50 0 empty empty empty 17 7 0 10 -262144 -1
-1;
#X obj 617 65 pack 0 0;
#X obj 590 66 f;
#X obj 714 63 / 44.1;
#X obj 643 107 tabread~ audio_file;
#X obj 631 129 dac~;
#X text 603 14 bang to listen to audio file;
#X msg 894 443 1000;
#X connect 0 0 86 0;
#X connect 1 0 0 0;
#X connect 2 0 3 0;
#X connect 3 0 4 0;
#X connect 8 0 7 0;
#X connect 9 0 8 0;
#X connect 11 0 10 0;
#X connect 11 0 10 1;
#X connect 12 0 13 0;
#X connect 13 0 14 0;
#X connect 14 0 15 0;
#X connect 15 0 11 1;
#X connect 16 0 12 0;
#X connect 17 0 18 0;
#X connect 18 0 16 0;
#X connect 19 0 16 0;
#X connect 20 0 45 0;
#X connect 24 0 28 0;
#X connect 25 0 26 0;
#X connect 26 0 33 0;
#X connect 27 0 26 1;
#X connect 28 0 32 0;
#X connect 29 0 30 0;
#X connect 30 0 28 1;
#X connect 31 0 30 1;
#X connect 32 0 41 0;
#X connect 32 0 44 1;
#X connect 33 0 36 0;
#X connect 33 0 42 0;
#X connect 34 0 87 0;
#X connect 35 0 34 0;
#X connect 35 0 47 0;
#X connect 36 0 39 0;
#X connect 37 0 53 0;
#X connect 38 0 37 0;
#X connect 39 0 40 0;
#X connect 39 1 40 1;
#X connect 40 0 69 0;
#X connect 41 0 43 1;
#X connect 42 0 41 0;
#X connect 42 1 41 1;
#X connect 43 0 35 0;
#X connect 44 0 34 0;
#X connect 45 0 57 0;
#X connect 45 1 56 0;
#X connect 45 2 60 0;
#X connect 47 0 17 0;
#X connect 49 0 54 0;
#X connect 50 0 51 0;
#X connect 50 1 51 1;
#X connect 51 0 52 0;
#X connect 52 0 40 0;
#X connect 53 0 50 0;
#X connect 55 0 24 0;
#X connect 56 0 44 0;
#X connect 57 0 43 0;
#X connect 60 0 19 0;
#X connect 61 0 90 0;
#X connect 61 0 68 0;
#X connect 61 0 89 0;
#X connect 61 0 88 0;
#X connect 61 0 91 0;
#X connect 62 0 61 0;
#X connect 63 0 20 0;
#X connect 64 0 73 0;
#X connect 64 0 74 0;
#X connect 64 0 103 0;
#X connect 65 0 71 0;
#X connect 65 0 72 0;
#X connect 67 0 37 0;
#X connect 69 0 70 0;
#X connect 69 1 70 1;
#X connect 70 0 35 1;
#X connect 70 0 18 1;
#X connect 71 0 89 1;
#X connect 72 0 89 2;
#X connect 73 0 90 1;
#X connect 74 0 90 2;
#X connect 75 0 77 0;
#X connect 75 0 78 0;
#X connect 77 0 88 1;
#X connect 78 0 88 2;
#X connect 79 0 25 0;
#X connect 80 0 49 0;
#X connect 81 0 84 0;
#X connect 81 0 82 0;
#X connect 82 0 91 2;
#X connect 84 0 91 1;
#X connect 86 0 2 0;
#X connect 87 0 11 0;
#X connect 88 0 76 0;
#X connect 89 0 66 0;
#X connect 90 0 61 1;
#X connect 90 0 70 0;
#X connect 91 0 83 0;
#X connect 92 0 100 0;
#X connect 93 0 98 0;
#X connect 93 1 94 0;
#X connect 94 0 92 0;
#X connect 95 0 98 1;
#X connect 95 0 99 0;
#X connect 96 0 93 0;
#X connect 97 0 92 0;
#X connect 98 0 97 0;
#X connect 99 0 97 1;
#X connect 100 0 101 0;
#X connect 100 0 101 1;
#X connect 103 0 70 0;
