#N canvas 0 22 1068 751 10;
#X obj 298 626 tabread~ lala;
#X obj 549 118 metro 20;
#X obj 549 97 tgl 15 0 empty empty empty 17 7 0 10 -262144 -1 -1 0
1;
#X floatatom 594 91 5 0 0 0 - - -, f 5;
#N canvas 737 142 450 300 meanNrange 0;
#X obj 181 117 random 1000;
#X obj 181 138 / 1000;
#X floatatom 181 220 5 0 0 0 - - -, f 5;
#X obj 181 93 inlet;
#X text 180 72 bang;
#X obj 181 162 * 1;
#X text 204 163 range;
#X obj 181 188 + 0;
#X text 207 191 mean;
#X obj 281 95 inlet;
#X text 283 74 mean;
#X obj 332 95 inlet;
#X text 330 75 range;
#X obj 181 244 outlet;
#X connect 0 0 1 0;
#X connect 1 0 5 0;
#X connect 2 0 13 0;
#X connect 3 0 0 0;
#X connect 5 0 7 0;
#X connect 7 0 2 0;
#X connect 9 0 7 1;
#X connect 11 0 5 1;
#X restore 492 231 pd meanNrange;
#X obj 532 185 hsl 128 15 0 1 0 0 empty empty empty -2 -8 0 10 -262144
-1 -1 0 1;
#X obj 570 209 hsl 128 15 0 1 0 0 empty empty empty -2 -8 0 10 -262144
-1 -1 0 1;
#X floatatom 492 253 5 0 0 0 - - -, f 5;
#N canvas 737 142 450 300 meanNrange 0;
#X obj 181 117 random 1000;
#X obj 181 138 / 1000;
#X floatatom 181 220 5 0 0 0 - - -, f 5;
#X obj 181 93 inlet;
#X text 180 72 bang;
#X obj 181 162 * 1;
#X text 204 163 range;
#X obj 181 188 + 0;
#X text 207 191 mean;
#X obj 281 95 inlet;
#X text 283 74 mean;
#X obj 332 95 inlet;
#X text 330 75 range;
#X obj 181 244 outlet;
#X connect 0 0 1 0;
#X connect 1 0 5 0;
#X connect 2 0 13 0;
#X connect 3 0 0 0;
#X connect 5 0 7 0;
#X connect 7 0 2 0;
#X connect 9 0 7 1;
#X connect 11 0 5 1;
#X restore 580 284 pd meanNrange;
#X obj 620 238 hsl 128 15 0 50 0 0 empty empty empty -2 -8 0 10 -262144
-1 -1 0 1;
#X obj 658 262 hsl 128 15 0 30 0 0 empty empty empty -2 -8 0 10 -262144
-1 -1 0 1;
#X floatatom 580 306 5 0 0 0 - - -, f 5;
#N canvas 737 142 450 300 meanNrange 0;
#X obj 181 117 random 1000;
#X obj 181 138 / 1000;
#X floatatom 181 220 5 0 0 0 - - -, f 5;
#X obj 181 93 inlet;
#X text 180 72 bang;
#X obj 181 162 * 1;
#X text 204 163 range;
#X obj 181 188 + 0;
#X text 207 191 mean;
#X obj 281 95 inlet;
#X text 283 74 mean;
#X obj 332 95 inlet;
#X text 330 75 range;
#X obj 181 244 outlet;
#X connect 0 0 1 0;
#X connect 1 0 5 0;
#X connect 2 0 13 0;
#X connect 3 0 0 0;
#X connect 5 0 7 0;
#X connect 7 0 2 0;
#X connect 9 0 7 1;
#X connect 11 0 5 1;
#X restore 656 333 pd meanNrange;
#X obj 696 287 hsl 128 15 0 1 0 0 empty empty empty -2 -8 0 10 -262144
-1 -1 0 1;
#X obj 734 311 hsl 128 15 0 0.5 0 0 empty empty empty -2 -8 0 10 -262144
-1 -1 0 1;
#X floatatom 656 355 5 0 0 0 - - -, f 5;
#N canvas 737 142 450 300 meanNrange 0;
#X obj 181 117 random 1000;
#X obj 181 138 / 1000;
#X floatatom 181 220 5 0 0 0 - - -, f 5;
#X obj 181 93 inlet;
#X text 180 72 bang;
#X obj 181 162 * 1;
#X text 204 163 range;
#X obj 181 188 + 0;
#X text 207 191 mean;
#X obj 281 95 inlet;
#X text 283 74 mean;
#X obj 332 95 inlet;
#X text 330 75 range;
#X obj 181 244 outlet;
#X connect 0 0 1 0;
#X connect 1 0 5 0;
#X connect 2 0 13 0;
#X connect 3 0 0 0;
#X connect 5 0 7 0;
#X connect 7 0 2 0;
#X connect 9 0 7 1;
#X connect 11 0 5 1;
#X restore 633 134 pd meanNrange;
#X obj 673 88 hsl 128 15 5 50000 0 0 empty empty empty -2 -8 0 10 -262144
-1 -1 0 1;
#X obj 711 112 hsl 128 15 0 30000 0 0 empty empty empty -2 -8 0 10
-262144 -1 -1 0 1;
#X floatatom 633 156 5 0 0 0 - - -, f 5;
#X text 807 87 time mean;
#X text 851 113 time range;
#X text 665 185 length mean;
#X text 705 209 length range;
#X text 757 235 speed mean;
#X text 794 261 speed range;
#X text 833 286 start mean;
#X text 870 310 start range;
#X obj 109 43 inlet;
#X obj 168 42 inlet;
#X obj 257 41 inlet;
#X obj 302 40 inlet;
#X obj 409 40 inlet;
#X obj 454 39 inlet;
#X obj 579 39 inlet;
#X obj 624 38 inlet;
#X text 89 23 time mean;
#X text 151 21 time range;
#X text 222 19 length mean;
#X text 297 18 length range;
#X text 387 18 speed mean;
#X text 462 19 speed range;
#X text 541 17 start mean;
#X text 614 15 start range;
#X obj 29 29 inlet;
#X text 3 58 start grain;
#X floatatom 656 396 5 0 0 0 - - -, f 5;
#X obj 656 374 min 1;
#X obj 537 146 t b b b b b;
#X obj 738 41 inlet;
#X obj 783 40 inlet;
#X text 700 19 volume mean;
#X text 773 17 volume range;
#X obj 922 40 inlet;
#X text 917 22 paning, f 7;
#X floatatom 492 295 5 0 0 0 - - -, f 5;
#X obj 492 273 min 1;
#N canvas 737 142 450 300 meanNrange 0;
#X obj 181 117 random 1000;
#X obj 181 138 / 1000;
#X floatatom 181 220 5 0 0 0 - - -, f 5;
#X obj 181 93 inlet;
#X text 180 72 bang;
#X obj 181 162 * 1;
#X text 204 163 range;
#X obj 181 188 + 0;
#X text 207 191 mean;
#X obj 281 95 inlet;
#X text 283 74 mean;
#X obj 332 95 inlet;
#X text 330 75 range;
#X obj 181 244 outlet;
#X connect 0 0 1 0;
#X connect 1 0 5 0;
#X connect 2 0 13 0;
#X connect 3 0 0 0;
#X connect 5 0 7 0;
#X connect 7 0 2 0;
#X connect 9 0 7 1;
#X connect 11 0 5 1;
#X restore 717 388 pd meanNrange;
#X obj 757 342 hsl 128 15 0 1 0 0 empty empty empty -2 -8 0 10 -262144
-1 -1 0 1;
#X obj 795 366 hsl 128 15 0 1 0 0 empty empty empty -2 -8 0 10 -262144
-1 -1 0 1;
#X floatatom 717 410 5 0 0 0 - - -, f 5;
#X floatatom 717 452 5 0 0 0 - - -, f 5;
#X obj 717 430 min 1;
#X text 890 342 volume mean;
#X text 929 365 volume range;
#X obj 445 455 cos~;
#X obj 445 476 *~ -1;
#X obj 445 497 +~ 1;
#X obj 445 517 /~ 2;
#X obj 444 434 line~;
#X msg 444 387 1;
#X obj 444 410 pack 0 0;
#X msg 487 388 0;
#X obj 236 230 bng 15 250 50 0 empty empty empty 17 7 0 10 -262144
-1 -1;
#X text 211 206 play grain;
#X text -2 329 starting index;
#X obj 140 411 *;
#X obj 155 390 r maxLength;
#X obj 26 454 *;
#X obj 41 392 r fileSize;
#X obj 41 433 -;
#X obj 56 412 r maxLength;
#X floatatom 26 476 12 0 0 0 - - -, f 12;
#X floatatom 140 433 12 0 0 0 - - -, f 12;
#X obj 170 583 line~;
#X obj 170 561 pack 0 0;
#X obj 242 421 / 44.1;
#X obj 242 442 t b f;
#X obj 228 464 *;
#X obj 140 519 +;
#X obj 140 452 t b f;
#X obj 125 540 f;
#X obj 11 497 f;
#X obj 236 249 t b b b;
#X obj 150 583 bng 15 250 50 0 empty empty empty 17 7 0 10 -262144
-1 -1;
#X obj 228 360 swap 1;
#X obj 228 382 /;
#X floatatom 228 404 5 0 0 0 - - -, f 5;
#X floatatom 227 339 5 0 0 0 - - -, f 5;
#X obj 11 346 bng 15 250 50 0 empty empty empty 17 7 0 10 -262144 -1
-1;
#X obj 125 343 bng 15 250 50 0 empty empty empty 17 7 0 10 -262144
-1 -1;
#X text 422 361 apply volume envelope;
#X obj 487 344 bng 15 250 50 0 empty empty empty 17 7 0 10 -262144
-1 -1;
#X text 129 319 length;
#X obj 298 647 *~;
#X obj 298 668 *~ 1;
#X floatatom 26 347 5 0 0 0 - - -, f 5;
#X floatatom 140 344 5 0 0 0 - - -, f 5;
#X obj 419 723 outlet~;
#X obj 532 695 *~;
#X obj 549 725 outlet~;
#X obj 438 695 *~;
#N canvas 0 22 471 321 myPanner 0;
#N canvas 737 142 450 300 meanNrange 0;
#X obj 181 117 random 1000;
#X obj 181 138 / 1000;
#X floatatom 181 220 5 0 0 0 - - -, f 5;
#X obj 181 93 inlet;
#X text 180 72 bang;
#X obj 181 162 * 1;
#X text 204 163 range;
#X obj 181 188 + 0;
#X text 207 191 mean;
#X obj 281 95 inlet;
#X text 283 74 mean;
#X obj 332 95 inlet;
#X text 330 75 range;
#X obj 181 244 outlet;
#X connect 0 0 1 0;
#X connect 1 0 5 0;
#X connect 2 0 13 0;
#X connect 3 0 0 0;
#X connect 5 0 7 0;
#X connect 7 0 2 0;
#X connect 9 0 7 1;
#X connect 11 0 5 1;
#X restore -637 158 pd meanNrange;
#X floatatom -637 180 5 0 0 0 - - -, f 5;
#X obj -637 136 bng 15 250 50 0 empty empty empty 17 7 0 10 -262144
-1 -1;
#X obj -600 109 loadbang;
#X obj -527 94 hsl 128 15 0 1 0 0 empty empty empty -2 -8 0 10 -262144
-1 -1 0 1;
#X msg -600 136 0;
#X floatatom -530 114 5 0 0 0 - - -, f 5;
#X obj -522 133 bng 15 250 50 0 empty empty empty 17 7 0 10 -262144
-1 -1;
#X floatatom -522 171 5 0 0 0 - - -, f 5;
#X obj -522 151 random 2;
#X obj -522 189 * 2;
#X obj -522 210 - 1;
#X floatatom -522 232 5 0 0 0 - - -, f 5;
#X obj -594 207 *;
#X obj -637 108 t b b;
#X floatatom -594 229 5 0 0 0 - - -, f 5;
#X obj -751 100 + 1;
#X obj -751 120 / 2;
#X floatatom -751 142 5 0 0 0 - - -, f 5;
#X obj -818 98 swap 1;
#X obj -807 119 -;
#X floatatom -807 141 5 0 0 0 - - -, f 5;
#X obj -637 48 inlet;
#X obj -530 51 inlet;
#X obj -751 167 outlet;
#X obj -807 167 outlet;
#X connect 0 0 1 0;
#X connect 1 0 13 0;
#X connect 2 0 0 0;
#X connect 3 0 5 0;
#X connect 4 0 0 2;
#X connect 4 0 6 0;
#X connect 5 0 0 1;
#X connect 7 0 9 0;
#X connect 8 0 10 0;
#X connect 9 0 8 0;
#X connect 10 0 11 0;
#X connect 11 0 12 0;
#X connect 12 0 13 1;
#X connect 13 0 15 0;
#X connect 14 0 2 0;
#X connect 14 1 7 0;
#X connect 15 0 16 0;
#X connect 16 0 17 0;
#X connect 17 0 18 0;
#X connect 18 0 19 0;
#X connect 18 0 24 0;
#X connect 19 0 20 0;
#X connect 19 1 20 1;
#X connect 20 0 21 0;
#X connect 21 0 25 0;
#X connect 22 0 14 0;
#X connect 23 0 4 0;
#X restore 460 641 pd myPanner;
#X floatatom 40 590 15 0 0 0 - - -, f 15;
#X floatatom 228 486 5 0 0 0 - - -, f 5;
#X obj 296 523 min;
#X obj 249 140 delay 100;
#X obj 156 131 moses 0.5;
#X obj 137 81 t f b;
#X msg 249 161 1;
#X obj 249 116 bng 15 250 50 0 empty empty empty 17 7 0 10 -262144
-1 -1;
#X obj 330 135 -;
#X connect 0 0 104 0;
#X connect 1 0 48 0;
#X connect 2 0 1 0;
#X connect 3 0 1 1;
#X connect 3 0 115 1;
#X connect 4 0 7 0;
#X connect 5 0 4 1;
#X connect 6 0 4 2;
#X connect 7 0 56 0;
#X connect 8 0 11 0;
#X connect 9 0 8 1;
#X connect 10 0 8 2;
#X connect 11 0 98 0;
#X connect 12 0 15 0;
#X connect 13 0 12 1;
#X connect 14 0 12 2;
#X connect 15 0 47 0;
#X connect 16 0 19 0;
#X connect 16 0 121 0;
#X connect 17 0 16 1;
#X connect 17 0 121 1;
#X connect 18 0 16 2;
#X connect 19 0 3 0;
#X connect 28 0 17 0;
#X connect 29 0 18 0;
#X connect 30 0 5 0;
#X connect 31 0 6 0;
#X connect 32 0 9 0;
#X connect 33 0 10 0;
#X connect 34 0 13 0;
#X connect 35 0 14 0;
#X connect 44 0 118 0;
#X connect 46 0 106 0;
#X connect 47 0 46 0;
#X connect 48 0 73 0;
#X connect 48 1 12 0;
#X connect 48 2 8 0;
#X connect 48 3 4 0;
#X connect 48 4 16 0;
#X connect 48 4 57 0;
#X connect 49 0 58 0;
#X connect 50 0 59 0;
#X connect 53 0 112 1;
#X connect 55 0 107 0;
#X connect 56 0 55 0;
#X connect 57 0 60 0;
#X connect 58 0 57 1;
#X connect 59 0 57 2;
#X connect 60 0 62 0;
#X connect 61 0 105 1;
#X connect 62 0 61 0;
#X connect 65 0 66 0;
#X connect 66 0 67 0;
#X connect 67 0 68 0;
#X connect 68 0 104 1;
#X connect 69 0 65 0;
#X connect 70 0 71 0;
#X connect 71 0 69 0;
#X connect 72 0 69 0;
#X connect 73 0 93 0;
#X connect 76 0 83 0;
#X connect 77 0 76 1;
#X connect 78 0 82 0;
#X connect 79 0 80 0;
#X connect 80 0 78 1;
#X connect 81 0 80 1;
#X connect 82 0 89 0;
#X connect 82 0 92 1;
#X connect 83 0 90 0;
#X connect 83 0 86 0;
#X connect 84 0 0 0;
#X connect 85 0 84 0;
#X connect 85 0 94 0;
#X connect 86 0 87 0;
#X connect 87 0 88 0;
#X connect 87 1 88 1;
#X connect 88 0 114 0;
#X connect 89 0 91 1;
#X connect 90 0 89 0;
#X connect 90 1 89 1;
#X connect 91 0 85 0;
#X connect 91 0 113 0;
#X connect 92 0 84 0;
#X connect 93 0 100 0;
#X connect 93 1 99 0;
#X connect 93 2 102 0;
#X connect 93 2 112 0;
#X connect 93 2 98 0;
#X connect 94 0 70 0;
#X connect 95 0 96 0;
#X connect 95 1 96 1;
#X connect 96 0 97 0;
#X connect 97 0 88 0;
#X connect 98 0 95 0;
#X connect 99 0 92 0;
#X connect 100 0 91 0;
#X connect 102 0 72 0;
#X connect 104 0 105 0;
#X connect 105 0 111 0;
#X connect 105 0 109 0;
#X connect 106 0 78 0;
#X connect 107 0 76 0;
#X connect 109 0 110 0;
#X connect 111 0 108 0;
#X connect 112 0 111 1;
#X connect 112 1 109 1;
#X connect 114 0 85 1;
#X connect 114 0 115 0;
#X connect 115 0 71 1;
#X connect 116 0 119 0;
#X connect 117 0 2 0;
#X connect 117 1 120 0;
#X connect 118 0 117 0;
#X connect 118 1 16 0;
#X connect 119 0 2 0;
#X connect 120 0 116 0;
#X connect 121 0 116 1;
